<?xml version="1.0" encoding="UTF-8" standalone="no"?>
<svg
   xmlns:dc="http://purl.org/dc/elements/1.1/"
   xmlns:cc="http://creativecommons.org/ns#"
   xmlns:rdf="http://www.w3.org/1999/02/22-rdf-syntax-ns#"
   xmlns:svg="http://www.w3.org/2000/svg"
   xmlns="http://www.w3.org/2000/svg"
   xmlns:sodipodi="http://sodipodi.sourceforge.net/DTD/sodipodi-0.dtd"
   xmlns:inkscape="http://www.inkscape.org/namespaces/inkscape"
   width="0.4in"
   x="0in"
   inkscape:version="0.92.1 r15371"
   version="1.2"
   y="0in"
   height="0.33in"
   viewBox="0 0 400 330"
   sodipodi:docname="MCP3002.svg"
   id="svg2871">
  <metadata
     id="metadata2922">
    <rdf:RDF>
      <cc:Work
         rdf:about="">
        <dc:format>image/svg+xml</dc:format>
        <dc:type
           rdf:resource="http://purl.org/dc/dcmitype/StillImage" />
        <dc:title />
      </cc:Work>
    </rdf:RDF>
  </metadata>
  <defs
     id="defs2920">
    <inkscape:perspective
       inkscape:vp_x="0 : 14.85 : 1"
       inkscape:vp_y="0 : 1000 : 0"
       inkscape:vp_z="36 : 14.85 : 1"
       sodipodi:type="inkscape:persp3d"
       id="perspective2924"
       inkscape:persp3d-origin="18 : 9.9000003 : 1" />
  </defs>
  <sodipodi:namedview
     objecttolerance="10"
     inkscape:cx="-4.5896193"
     inkscape:pageshadow="2"
     inkscape:window-height="705"
     inkscape:cy="14.354222"
     bordercolor="#666666"
     id="namedview2918"
     guidetolerance="10"
     inkscape:pageopacity="0"
     inkscape:window-x="-8"
     inkscape:window-y="-8"
     inkscape:current-layer="breadboard"
     pagecolor="#ffffff"
     showgrid="false"
     inkscape:zoom="7.9461277"
     inkscape:window-width="1366"
     borderopacity="1"
     inkscape:window-maximized="1"
     gridtolerance="10" />
  <g
     id="breadboard">
    <rect
       width="400"
       x="0"
       y="30"
       fill="#303030"
       height="270"
       id="middle"
       stroke-width="0" />
    <rect
       width="400"
       x="0"
       y="30"
       fill="#3D3D3D"
       height="24.6"
       id="top"
       stroke-width="0" />
    <rect
       width="400"
       x="0"
       y="275.4"
       fill="#000000"
       height="24.6"
       id="bottom"
       stroke-width="0" />
    <polygon
       fill="#141414"
       points="400,30,392.5,54.6,392.5,275.4,400,300"
       id="right"
       stroke-width="0" />
    <polygon
       fill="#1F1F1F"
       points="0,30,7.5,54.6,7.5,275.4,0,300"
       id="left"
       stroke-width="0" />
    <polygon
       fill="#1C1C1C"
       points="50,115,7.5,114.6,5.6,135.8,5.6,165,50,165"
       id="left-upper-rect"
       stroke-width="0" />
    <polygon
       fill="#383838"
       points="7.5,215.5,50,215.5,50,165,5.6,165,5.6,194.2"
       id="left-lower-rect"
       stroke-width="0" />
    <path
       fill="#262626"
       id="slot"
       stroke-width="0"
       d="M5.6,135.8l0,58.3c14.7,-1.7,26.2,-14,26.2,-29.2C31.8,149.7,20.4,137.5,5.6,135.8z" />
    <path
       fill="#303030"
       id="cover"
       stroke-width="0"
       d="M7.5,54.6L7.5,114.5c23.8,4.5,41.9,25.3,41.9,50.4c0,25.1,-18,46,-41.9,50.5L7.5,215.5l50,0L57.5,54.6L7.5,54.6z" />
    <circle
       fill="#212121"
       cx="65"
       cy="234.7"
       r="20.6"
       id="circle2883"
       stroke-width="0" />
    <g
       sodipodi:linespacing="125%"
       style="font-size:80px;line-height:125%;font-family:OCRA;text-align:start;writing-mode:lr-tb;text-anchor:start;fill:#e6e6e6;stroke:none;stroke-width:0"
       id="label"
       font-size="80"
       transform="translate(0,-6.1992453)">
      <g
         aria-label="MCP"
         style="line-height:0%"
         id="text16">
        <path
           d="M 124.60938,165 H 116.875 v -50.11719 l -16.17187,34.10156 H 96.09375 L 80.039062,114.88281 V 165 H 72.8125 v -58.16406 h 10.546875 l 15.507812,32.38281 15.000003,-32.38281 h 10.74219 z"
           style="line-height:0%"
           id="path4569" />
        <path
           d="m 185.23437,160.78125 q -2.14843,0.9375 -3.90625,1.75781 -1.71875,0.82031 -4.53125,1.71875 -2.38281,0.74219 -5.19531,1.25 -2.77344,0.54688 -6.13281,0.54688 -6.32813,0 -11.52344,-1.75782 -5.15625,-1.79687 -8.98437,-5.58593 -3.75,-3.71094 -5.85938,-9.41407 -2.10937,-5.74218 -2.10937,-13.32031 0,-7.1875 2.03125,-12.85156 2.03125,-5.66406 5.85937,-9.57031 3.71094,-3.78906 8.94531,-5.78125 5.27344,-1.99219 11.67969,-1.99219 4.6875,0 9.33594,1.13281 4.6875,1.13282 10.39062,3.98438 v 9.17969 h -0.58593 q -4.80469,-4.02344 -9.53125,-5.85938 -4.72657,-1.83594 -10.11719,-1.83594 -4.41406,0 -7.96875,1.44532 -3.51563,1.40625 -6.28906,4.41406 -2.69532,2.92969 -4.21875,7.42187 -1.48438,4.45313 -1.48438,10.3125 0,6.13281 1.64063,10.54688 1.67968,4.41406 4.29687,7.1875 2.73438,2.89062 6.36719,4.29687 3.67187,1.36719 7.73437,1.36719 5.58594,0 10.46875,-1.91406 4.88282,-1.91407 9.14063,-5.74219 h 0.54687 z"
           style="line-height:0%"
           id="path4571" />
        <path
           d="m 234.29687,124.41406 q 0,3.86719 -1.36718,7.1875 -1.32813,3.28125 -3.75,5.70313 -3.00782,3.00781 -7.10938,4.53125 -4.10156,1.48437 -10.35156,1.48437 h -7.73438 V 165 H 196.25 v -58.16406 h 15.78125 q 5.23437,0 8.86719,0.89844 3.63281,0.85937 6.44531,2.73437 3.32031,2.22656 5.11719,5.54688 1.83593,3.32031 1.83593,8.39843 z m -8.04687,0.19532 q 0,-3.00782 -1.05469,-5.23438 -1.05469,-2.22656 -3.20312,-3.63281 -1.875,-1.21094 -4.29688,-1.71875 -2.38281,-0.54688 -6.05469,-0.54688 h -7.65625 v 23.24219 h 6.52344 q 4.6875,0 7.61719,-0.82031 2.92969,-0.85938 4.76562,-2.69532 1.83594,-1.875 2.57813,-3.94531 0.78125,-2.07031 0.78125,-4.64843 z"
           style="line-height:0%"
           id="path4573" />
      </g>
      <g
         aria-label="3002"
         style="font-size:74.99475861px;line-height:0%;text-align:start;writing-mode:lr-tb;text-anchor:start;stroke-width:6.24956369"
         id="text16-9">
        <path
           d="m 215.21165,209.22658 q 1.75769,1.5746 2.89287,3.9548 1.13517,2.38021 1.13517,6.15192 0,3.73509 -1.35488,6.84766 -1.35489,3.11258 -3.80833,5.41955 -2.74639,2.56329 -6.48148,3.80832 -3.69847,1.20842 -8.12932,1.20842 -4.54069,0 -8.93492,-1.09856 -4.39422,-1.06194 -7.21385,-2.34359 v -7.65327 h 0.54928 q 3.11257,2.05064 7.3237,3.40552 4.21114,1.35489 8.12932,1.35489 2.30697,0 4.90688,-0.76899 2.59992,-0.76899 4.21113,-2.27035 1.68446,-1.61121 2.49006,-3.552 0.84223,-1.94078 0.84223,-4.90688 0,-2.92948 -0.95208,-4.83365 -0.91546,-1.94078 -2.5633,-3.03934 -1.64783,-1.13517 -3.99142,-1.53797 -2.34358,-0.43943 -5.05336,-0.43943 h -3.29566 v -6.07867 h 2.56329 q 5.56602,0 8.86169,-2.30697 3.33228,-2.34359 3.33228,-6.81105 0,-1.9774 -0.84222,-3.44214 -0.84223,-1.50136 -2.34359,-2.45344 -1.57459,-0.95208 -3.3689,-1.31827 -1.79431,-0.36619 -4.06466,-0.36619 -3.47876,0 -7.39694,1.24504 -3.91819,1.24503 -7.39695,3.51537 h -0.36618 v -7.65327 q 2.59991,-1.28165 6.9209,-2.34359 4.35761,-1.09855 8.42226,-1.09855 3.99142,0 7.03076,0.73237 3.03934,0.73237 5.49278,2.34359 2.63654,1.75769 3.99142,4.24775 1.35489,2.49006 1.35489,5.82234 0,4.5407 -3.22243,7.94622 -3.18582,3.36891 -7.54342,4.24775 v 0.51266 q 1.75769,0.29295 4.02804,1.24503 2.27035,0.91547 3.84494,2.30697 z"
           style="font-size:74.99475861px;line-height:0%;text-align:start;writing-mode:lr-tb;text-anchor:start;stroke-width:6.24956369"
           id="path4576" />
        <path
           d="m 267.68601,208.20126 q 0,14.68404 -4.61393,21.56832 -4.57732,6.84767 -14.24461,6.84767 -9.81377,0 -14.35447,-6.95753 -4.50408,-6.95752 -4.50408,-21.38522 0,-14.53756 4.57732,-21.45846 4.57732,-6.95752 14.28123,-6.95752 9.81376,0 14.31784,7.06737 4.5407,7.03076 4.5407,21.27537 z m -9.63067,16.62482 q 1.28165,-2.9661 1.72107,-6.95752 0.47604,-4.02804 0.47604,-9.6673 0,-5.56601 -0.47604,-9.66729 -0.43942,-4.10128 -1.75769,-6.95752 -1.28165,-2.81963 -3.51538,-4.24775 -2.19711,-1.42812 -5.67587,-1.42812 -3.44214,0 -5.71249,1.42812 -2.23373,1.42812 -3.552,4.32099 -1.24503,2.70977 -1.72107,7.06737 -0.43943,4.35761 -0.43943,9.55744 0,5.71249 0.40281,9.55744 0.4028,3.84494 1.72107,6.88428 1.20841,2.85625 3.40552,4.35761 2.23373,1.50136 5.89559,1.50136 3.44214,0 5.71249,-1.42813 2.27035,-1.42812 3.51538,-4.32098 z"
           style="font-size:74.99475861px;line-height:0%;text-align:start;writing-mode:lr-tb;text-anchor:start;stroke-width:6.24956369"
           id="path4578" />
        <path
           d="m 315.43658,208.20126 q 0,14.68404 -4.61393,21.56832 -4.57732,6.84767 -14.24461,6.84767 -9.81377,0 -14.35447,-6.95753 -4.50408,-6.95752 -4.50408,-21.38522 0,-14.53756 4.57732,-21.45846 4.57731,-6.95752 14.28123,-6.95752 9.81376,0 14.31784,7.06737 4.5407,7.03076 4.5407,21.27537 z m -9.63067,16.62482 q 1.28165,-2.9661 1.72107,-6.95752 0.47604,-4.02804 0.47604,-9.6673 0,-5.56601 -0.47604,-9.66729 -0.43942,-4.10128 -1.75769,-6.95752 -1.28165,-2.81963 -3.51538,-4.24775 -2.19711,-1.42812 -5.67587,-1.42812 -3.44215,0 -5.7125,1.42812 -2.23373,1.42812 -3.55199,4.32099 -1.24503,2.70977 -1.72107,7.06737 -0.43943,4.35761 -0.43943,9.55744 0,5.71249 0.40281,9.55744 0.4028,3.84494 1.72107,6.88428 1.20841,2.85625 3.40552,4.35761 2.23373,1.50136 5.89559,1.50136 3.44214,0 5.71249,-1.42813 2.27035,-1.42812 3.51538,-4.32098 z"
           style="font-size:74.99475861px;line-height:0%;text-align:start;writing-mode:lr-tb;text-anchor:start;stroke-width:6.24956369"
           id="path4580" />
        <path
           d="m 363.26039,235.48207 h -36.91148 v -7.65327 q 3.84494,-3.29567 7.68989,-6.59134 3.88156,-3.29567 7.21385,-6.55472 7.03076,-6.81104 9.63068,-10.80246 2.59991,-4.02804 2.59991,-8.6786 0,-4.24775 -2.81963,-6.62795 -2.783,-2.41683 -7.79974,-2.41683 -3.33229,0 -7.21385,1.1718 -3.88157,1.17179 -7.58004,3.58861 h -0.36619 v -7.68989 q 2.59992,-1.28165 6.92091,-2.34358 4.3576,-1.06194 8.42226,-1.06194 8.38564,0 13.14605,4.06466 4.76041,4.02803 4.76041,10.94894 0,3.11257 -0.80561,5.82234 -0.76898,2.67316 -2.30696,5.08998 -1.42813,2.27035 -3.36891,4.46746 -1.90416,2.19711 -4.65055,4.87027 -3.91819,3.84494 -8.0927,7.47018 -4.17451,3.58861 -7.79975,6.66457 h 29.33145 z"
           style="font-size:74.99475861px;line-height:0%;text-align:start;writing-mode:lr-tb;text-anchor:start;stroke-width:6.24956369"
           id="path4582" />
      </g>
    </g>
    <rect
       width="30"
       x="35"
       y="286.6"
       fill="#8C8C8C"
       height="43.4"
       id="connector0pin"
       stroke-width="0" />
    <rect
       width="30"
       x="35"
       y="300"
       fill="#8C8C8C"
       height="30"
       id="connector0terminal"
       stroke-width="0" />
    <polygon
       fill="#8C8C8C"
       points="35,286.6,35,306.6,65,306.6,85,297.4,85,286.6"
       id="polygon2888"
       stroke-width="0" />
    <rect
       width="30"
       x="35"
       y="0"
       fill="#8C8C8C"
       height="43.4"
       id="connector7pin"
       stroke-width="0" />
    <rect
       width="30"
       x="35"
       y="0"
       fill="#8C8C8C"
       height="30"
       id="connector7terminal"
       stroke-width="0" />
    <polygon
       fill="#8C8C8C"
       points="85,43.4,85,32.6,65,23.4,35,23.4,35,43.4"
       id="polygon2892"
       stroke-width="0" />
    <rect
       width="30"
       x="335"
       y="286.6"
       fill="#8C8C8C"
       height="43.4"
       id="connector3pin"
       stroke-width="0" />
    <rect
       width="30"
       x="335"
       y="300"
       fill="#8C8C8C"
       height="30"
       id="connector3terminal"
       stroke-width="0" />
    <polygon
       fill="#8C8C8C"
       points="315,286.6,315,297.4,335,306.6,365,306.6,365,286.6"
       id="polygon2896"
       stroke-width="0" />
    <rect
       width="30"
       x="335"
       y="0"
       fill="#8C8C8C"
       height="43.4"
       id="connector4pin"
       stroke-width="0" />
    <rect
       width="30"
       x="335"
       y="0"
       fill="#8C8C8C"
       height="30"
       id="connector4terminal"
       stroke-width="0" />
    <polygon
       fill="#8C8C8C"
       points="365,43.4,365,23.4,335,23.4,315,32.6,315,43.4"
       id="polygon2900"
       stroke-width="0" />
    <rect
       width="30"
       x="135"
       y="286.6"
       fill="#8C8C8C"
       height="43.4"
       id="connector1pin"
       stroke-width="0" />
    <rect
       width="30"
       x="135"
       y="300"
       fill="#8C8C8C"
       height="30"
       id="connector1terminal"
       stroke-width="0" />
    <polygon
       fill="#8C8C8C"
       points="115,286.6,115,297.4,135,306.6,165,306.6,185,297.4,185,286.6"
       id="polygon2904"
       stroke-width="0" />
    <rect
       width="30"
       x="135"
       y="0"
       fill="#8C8C8C"
       height="43.4"
       id="connector6pin"
       stroke-width="0" />
    <rect
       width="30"
       x="135"
       y="0"
       fill="#8C8C8C"
       height="30"
       id="connector6terminal"
       stroke-width="0" />
    <polygon
       fill="#8C8C8C"
       points="185,43.4,185,32.6,165,23.4,135,23.4,115,32.6,115,43.4"
       id="polygon2908"
       stroke-width="0" />
    <rect
       width="30"
       x="235"
       y="286.6"
       fill="#8C8C8C"
       height="43.4"
       id="connector2pin"
       stroke-width="0" />
    <rect
       width="30"
       x="235"
       y="300"
       fill="#8C8C8C"
       height="30"
       id="connector2terminal"
       stroke-width="0" />
    <polygon
       fill="#8C8C8C"
       points="215,286.6,215,297.4,235,306.6,265,306.6,285,297.4,285,286.6"
       id="polygon2912"
       stroke-width="0" />
    <rect
       width="30"
       x="235"
       y="0"
       fill="#8C8C8C"
       height="43.4"
       id="connector5pin"
       stroke-width="0" />
    <rect
       width="30"
       x="235"
       y="0"
       fill="#8C8C8C"
       height="30"
       id="connector5terminal"
       stroke-width="0" />
    <polygon
       fill="#8C8C8C"
       points="285,43.4,285,32.6,265,23.4,235,23.4,215,32.6,215,43.4"
       id="polygon2916"
       stroke-width="0" />
  </g>
</svg>
