<?xml version="1.0" encoding="UTF-8" standalone="no"?>
<!-- Created with Fritzing (http://www.fritzing.org/) -->

<svg
   xmlns:dc="http://purl.org/dc/elements/1.1/"
   xmlns:cc="http://creativecommons.org/ns#"
   xmlns:rdf="http://www.w3.org/1999/02/22-rdf-syntax-ns#"
   xmlns:svg="http://www.w3.org/2000/svg"
   xmlns="http://www.w3.org/2000/svg"
   xmlns:sodipodi="http://sodipodi.sourceforge.net/DTD/sodipodi-0.dtd"
   xmlns:inkscape="http://www.inkscape.org/namespaces/inkscape"
   version="1.2"
   x="0in"
   y="0in"
   width="1.5in"
   height="0.5in"
   viewBox="0 0 38.1 12.7"
   id="svg56"
   sodipodi:docname="MCP3002_sch.svg"
   inkscape:version="0.92.1 r15371">
  <metadata
     id="metadata62">
    <rdf:RDF>
      <cc:Work
         rdf:about="">
        <dc:format>image/svg+xml</dc:format>
        <dc:type
           rdf:resource="http://purl.org/dc/dcmitype/StillImage" />
      </cc:Work>
    </rdf:RDF>
  </metadata>
  <defs
     id="defs60" />
  <sodipodi:namedview
     pagecolor="#ffffff"
     bordercolor="#666666"
     borderopacity="1"
     objecttolerance="10"
     gridtolerance="10"
     guidetolerance="10"
     inkscape:pageopacity="0"
     inkscape:pageshadow="2"
     inkscape:window-width="1366"
     inkscape:window-height="705"
     id="namedview58"
     showgrid="false"
     inkscape:zoom="7"
     inkscape:cx="76.056022"
     inkscape:cy="25.373181"
     inkscape:window-x="-8"
     inkscape:window-y="-8"
     inkscape:window-maximized="1"
     inkscape:current-layer="svg56" />
  <g
     id="schematic">
    <path
       style="fill:#ffffff;stroke:#000000;stroke-width:0.3175;stroke-linecap:round"
       d="m 5.23875,0.15875 h 27.622499 v 12.3825 H 5.23875 Z"
       id="rect2" />
    <path
       style="fill:none;stroke:#787878;stroke-width:0.246944;stroke-linecap:round"
       d="m 32.8965,2.54 h 5.080001"
       id="connector7pin" />
    <g
       aria-label="8"
       style="font-size:0.881944px;font-family:'Droid Sans';text-anchor:middle;fill:#8c8c8c;stroke:none;stroke-width:0"
       id="text5">
      <path
         d="m 35.663877,1.9908657 q 0,0.083113 -0.06503,0.1382344 -0.0646,0.055121 -0.162781,0.055121 -0.104214,0 -0.166226,-0.05383 -0.06158,-0.053829 -0.06158,-0.1378037 0,-0.053399 0.03101,-0.096463 0.03101,-0.043494 0.08742,-0.068902 V 1.82464 q -0.05168,-0.027561 -0.07665,-0.060289 -0.02455,-0.032728 -0.02455,-0.081821 0,-0.072347 0.05943,-0.1205783 0.05943,-0.048231 0.151154,-0.048231 0.09603,0 0.153307,0.046078 0.05727,0.046078 0.05727,0.1171332 0,0.043494 -0.02713,0.085697 -0.02713,0.041772 -0.07967,0.065457 v 0.00258 q 0.06029,0.025838 0.09216,0.063734 0.03187,0.037896 0.03187,0.096463 z M 35.561816,1.6777928 q 0,-0.046078 -0.03574,-0.073208 -0.03531,-0.027561 -0.09043,-0.027561 -0.05426,0 -0.08914,0.025838 -0.03445,0.025838 -0.03445,0.069763 0,0.031006 0.01723,0.05383 0.01766,0.022393 0.05297,0.040049 0.01593,0.00775 0.04565,0.02024 0.03014,0.012488 0.05857,0.020671 0.04263,-0.028422 0.059,-0.058997 0.01636,-0.030575 0.01636,-0.070625 z m 0.01335,0.321255 q 0,-0.039619 -0.01766,-0.063304 -0.01723,-0.024116 -0.06804,-0.048231 -0.02024,-0.00947 -0.04436,-0.017656 -0.02412,-0.00818 -0.06417,-0.022824 -0.03876,0.021101 -0.06244,0.057275 -0.02325,0.036173 -0.02325,0.081821 0,0.058136 0.04005,0.096032 0.04005,0.037896 0.10163,0.037896 0.06287,0 0.100339,-0.032298 0.0379,-0.032298 0.0379,-0.088711 z"
         style="font-size:0.881944px;font-family:'Droid Sans';text-anchor:middle;fill:#8c8c8c;stroke:none;stroke-width:0"
         id="path4541" />
    </g>
    <g
       aria-label="Vdd"
       style="font-size:1.23471999px;font-family:'Droid Sans';text-anchor:end;fill:#8c8c8c;stroke:none;stroke-width:0"
       id="text7">
      <path
         d="M 30.848347,1.889236 30.521581,2.7869401 H 30.362417 L 30.035651,1.889236 h 0.127813 l 0.281549,0.7897867 0.28155,-0.7897867 z"
         style="font-size:1.23471999px;font-family:'Droid Sans';text-anchor:end;fill:#8c8c8c;stroke:none;stroke-width:0"
         id="path4544" />
      <path
         d="m 31.521776,2.7869401 h -0.113343 v -0.070538 q -0.04883,0.042202 -0.101889,0.065715 -0.05305,0.023513 -0.115152,0.023513 -0.120578,0 -0.191719,-0.092845 -0.07054,-0.092845 -0.07054,-0.2574343 0,-0.085611 0.02412,-0.1525314 0.02472,-0.066921 0.06632,-0.1139463 0.041,-0.04582 0.09526,-0.069935 0.05486,-0.024116 0.113343,-0.024116 0.05306,0 0.09405,0.011455 0.041,0.010852 0.08621,0.034365 V 1.8488423 h 0.113343 z M 31.408433,2.6211452 V 2.2346923 q -0.04582,-0.020498 -0.08199,-0.028336 -0.03617,-0.00784 -0.07898,-0.00784 -0.09526,0 -0.148311,0.066318 -0.05306,0.066318 -0.05306,0.1881019 0,0.1199752 0.041,0.1826759 0.041,0.062098 0.13143,0.062098 0.04823,0 0.09767,-0.021101 0.04944,-0.021704 0.09224,-0.055466 z"
         style="font-size:1.23471999px;font-family:'Droid Sans';text-anchor:end;fill:#8c8c8c;stroke:none;stroke-width:0"
         id="path4546" />
      <path
         d="m 32.291065,2.7869401 h -0.113344 v -0.070538 q -0.04883,0.042202 -0.101888,0.065715 -0.05306,0.023513 -0.115152,0.023513 -0.120579,0 -0.19172,-0.092845 -0.07054,-0.092845 -0.07054,-0.2574343 0,-0.085611 0.02412,-0.1525314 0.02472,-0.066921 0.06632,-0.1139463 0.041,-0.04582 0.09526,-0.069935 0.05486,-0.024116 0.113344,-0.024116 0.05305,0 0.09405,0.011455 0.041,0.010852 0.08621,0.034365 V 1.8488423 h 0.113344 z M 32.177721,2.6211452 V 2.2346923 q -0.04582,-0.020498 -0.08199,-0.028336 -0.03617,-0.00784 -0.07898,-0.00784 -0.09526,0 -0.148311,0.066318 -0.05305,0.066318 -0.05305,0.1881019 0,0.1199752 0.041,0.1826759 0.041,0.062098 0.13143,0.062098 0.04823,0 0.09767,-0.021101 0.04944,-0.021704 0.09224,-0.055466 z"
         style="font-size:1.23471999px;font-family:'Droid Sans';text-anchor:end;fill:#8c8c8c;stroke:none;stroke-width:0"
         id="path4548" />
    </g>
    <path
       style="fill:none;stroke:none;stroke-width:0"
       d="m 37.976501,2.4165299 h 0.246944 v 0.246944 h -0.246944 z"
       id="connector7terminal" />
    <path
       style="fill:none;stroke:#787878;stroke-width:0.246944;stroke-linecap:round"
       d="m 32.8965,5.0799999 h 5.080001"
       id="connector6pin" />
    <g
       aria-label="7"
       style="font-size:0.881944px;font-family:'Droid Sans';text-anchor:middle;fill:#8c8c8c;stroke:none;stroke-width:0"
       id="text11">
      <path
         d="m 35.660862,4.1643939 -0.290249,0.545186 h -0.09216 l 0.308766,-0.5658566 h -0.36518 v -0.075361 h 0.438819 z"
         style="font-size:0.881944px;font-family:'Droid Sans';text-anchor:middle;fill:#8c8c8c;stroke:none;stroke-width:0"
         id="path4553" />
    </g>
    <g
       aria-label="CLK"
       style="font-size:1.23471999px;font-family:'Droid Sans';text-anchor:end;fill:#8c8c8c;stroke:none;stroke-width:0"
       id="text13">
      <path
         d="m 30.809762,5.2618279 q -0.03316,0.014469 -0.06029,0.02713 -0.02653,0.012661 -0.06993,0.026527 -0.03678,0.011455 -0.08019,0.019292 -0.04281,0.00844 -0.09465,0.00844 -0.09767,0 -0.177853,-0.02713 -0.07958,-0.027733 -0.138665,-0.086213 -0.05788,-0.057275 -0.09043,-0.1452967 -0.03256,-0.088625 -0.03256,-0.2055857 0,-0.1109318 0.03135,-0.198351 0.03135,-0.087419 0.09043,-0.1477082 0.05727,-0.05848 0.138062,-0.089228 0.08139,-0.030747 0.180265,-0.030747 0.07235,0 0.14409,0.017484 0.07235,0.017484 0.160369,0.061495 v 0.1416793 h -0.009 q -0.07416,-0.062098 -0.147105,-0.090434 -0.07295,-0.028336 -0.156149,-0.028336 -0.06813,0 -0.12299,0.022307 -0.05426,0.021704 -0.09707,0.068127 -0.0416,0.045217 -0.06511,0.1145492 -0.02291,0.068729 -0.02291,0.1591631 0,0.094654 0.02532,0.1627805 0.02593,0.068127 0.06632,0.1109319 0.0422,0.044614 0.09827,0.066318 0.05667,0.021101 0.119373,0.021101 0.08621,0 0.161574,-0.029542 0.07536,-0.029542 0.141077,-0.088625 h 0.0084 z"
         style="font-size:1.23471999px;font-family:'Droid Sans';text-anchor:end;fill:#8c8c8c;stroke:none;stroke-width:0"
         id="path4556" />
      <path
         d="M 31.5477,5.3269401 H 30.979777 V 4.4292359 h 0.119373 v 0.7915954 h 0.44855 z"
         style="font-size:1.23471999px;font-family:'Droid Sans';text-anchor:end;fill:#8c8c8c;stroke:none;stroke-width:0"
         id="path4558" />
      <path
         d="M 32.388733,5.3269401 H 32.23379 L 31.878687,4.9272236 31.78946,5.0224803 V 5.3269401 H 31.670087 V 4.4292359 h 0.119373 v 0.468446 l 0.435889,-0.468446 h 0.144694 l -0.400922,0.4220235 z"
         style="font-size:1.23471999px;font-family:'Droid Sans';text-anchor:end;fill:#8c8c8c;stroke:none;stroke-width:0"
         id="path4560" />
    </g>
    <path
       style="fill:none;stroke:none;stroke-width:0"
       d="m 37.976501,4.9565301 h 0.246944 v 0.246944 h -0.246944 z"
       id="connector6terminal" />
    <path
       style="fill:none;stroke:#787878;stroke-width:0.246944;stroke-linecap:round"
       d="m 32.8965,7.6199999 h 5.080001"
       id="connector5pin" />
    <g
       aria-label="6"
       style="font-size:0.881944px;font-family:'Droid Sans';text-anchor:middle;fill:#8c8c8c;stroke:none;stroke-width:0"
       id="text17">
      <path
         d="m 35.668614,7.0415824 q 0,0.097754 -0.0646,0.1597662 -0.06417,0.061581 -0.157613,0.061581 -0.04737,0 -0.08613,-0.014642 -0.03876,-0.014642 -0.06847,-0.043494 -0.03703,-0.035743 -0.05727,-0.09474 -0.01981,-0.058997 -0.01981,-0.1421101 0,-0.085266 0.01809,-0.1511535 0.01852,-0.065887 0.05857,-0.1171332 0.0379,-0.048662 0.09775,-0.075792 0.05986,-0.027561 0.139526,-0.027561 0.02541,0 0.04263,0.00215 0.01723,0.00215 0.03488,0.00775 v 0.082252 h -0.0043 q -0.01206,-0.00646 -0.0366,-0.012058 -0.02412,-0.00603 -0.04952,-0.00603 -0.09259,0 -0.147709,0.058136 -0.05512,0.057705 -0.06417,0.1563211 0.03617,-0.021962 0.07106,-0.033159 0.03531,-0.011627 0.08139,-0.011627 0.04091,0 0.07192,0.00775 0.03144,0.00732 0.06417,0.030145 0.0379,0.026269 0.05684,0.066318 0.01938,0.040049 0.01938,0.097324 z m -0.08742,0.00345 q 0,-0.040049 -0.01206,-0.066318 -0.01163,-0.026269 -0.03876,-0.045647 -0.01981,-0.01378 -0.04393,-0.018087 -0.02412,-0.00431 -0.05038,-0.00431 -0.0366,0 -0.06804,0.00861 -0.03144,0.00861 -0.06459,0.026699 -8.61e-4,0.00947 -0.0013,0.018517 -4.31e-4,0.00861 -4.31e-4,0.021962 0,0.068041 0.01378,0.1076592 0.01421,0.039188 0.03876,0.062012 0.01981,0.018948 0.04263,0.027991 0.02325,0.00861 0.05038,0.00861 0.06244,0 0.09819,-0.037896 0.03574,-0.038327 0.03574,-0.1098123 z"
         style="font-size:0.881944px;font-family:'Droid Sans';text-anchor:middle;fill:#8c8c8c;stroke:none;stroke-width:0"
         id="path4565" />
    </g>
    <g
       aria-label="DOUT"
       style="font-size:1.23471999px;font-family:'Droid Sans';text-anchor:end;fill:#8c8c8c;stroke:none;stroke-width:0"
       id="text19">
      <path
         d="m 29.690797,7.4189923 q 0,0.1223868 -0.05366,0.2218637 -0.05305,0.099477 -0.141679,0.15434 -0.06149,0.037982 -0.137459,0.054863 Q 29.28264,7.86694 29.159048,7.86694 H 28.932361 V 6.9692359 h 0.224275 q 0.13143,0 0.2086,0.019292 0.07777,0.01869 0.131431,0.051849 0.09164,0.057275 0.142885,0.1525313 0.05125,0.095257 0.05125,0.226084 z m -0.124798,-0.00181 q 0,-0.1055058 -0.03678,-0.1778527 -0.03678,-0.072347 -0.109726,-0.1139463 -0.05306,-0.030145 -0.112741,-0.0416 -0.05969,-0.012058 -0.142885,-0.012058 h -0.112138 v 0.6927213 h 0.112138 q 0.08621,0 0.15012,-0.012661 0.06451,-0.012661 0.118166,-0.047026 0.06692,-0.042805 0.10008,-0.1127405 0.03376,-0.069935 0.03376,-0.1748383 z"
         style="font-size:1.23471999px;font-family:'Droid Sans';text-anchor:end;fill:#8c8c8c;stroke:none;stroke-width:0"
         id="path4568" />
      <path
         d="m 30.554137,7.0723302 q 0.05486,0.060289 0.0838,0.1477082 0.02954,0.087419 0.02954,0.198351 0,0.1109319 -0.03014,0.1989539 -0.02954,0.087419 -0.0832,0.1458995 -0.05547,0.060892 -0.13143,0.091639 -0.07536,0.030747 -0.172427,0.030747 -0.09465,0 -0.172427,-0.03135 -0.07717,-0.03135 -0.13143,-0.091036 -0.05426,-0.059686 -0.0838,-0.1465024 -0.02894,-0.086816 -0.02894,-0.198351 0,-0.1097261 0.02894,-0.1965423 0.02894,-0.087419 0.08441,-0.1495169 0.05305,-0.059083 0.13143,-0.090434 0.07898,-0.03135 0.171824,-0.03135 0.09646,0 0.173029,0.031953 0.07717,0.03135 0.130828,0.089831 z m -0.01085,0.3460592 q 0,-0.1748383 -0.07838,-0.2694921 -0.07838,-0.095257 -0.214026,-0.095257 -0.136856,0 -0.215232,0.095257 -0.07777,0.094654 -0.07777,0.2694921 0,0.176647 0.07958,0.2706979 0.07958,0.093448 0.213424,0.093448 0.133841,0 0.21282,-0.093448 0.07958,-0.094051 0.07958,-0.2706979 z"
         style="font-size:1.23471999px;font-family:'Droid Sans';text-anchor:end;fill:#8c8c8c;stroke:none;stroke-width:0"
         id="path4570" />
      <path
         d="m 31.532628,7.5064114 q 0,0.097668 -0.0217,0.1706181 -0.0211,0.072347 -0.06994,0.1205781 -0.04642,0.04582 -0.108521,0.066921 -0.0621,0.021101 -0.144693,0.021101 -0.0844,0 -0.147106,-0.022307 -0.0627,-0.022307 -0.105506,-0.065715 -0.04883,-0.049437 -0.07054,-0.1193723 -0.0211,-0.069935 -0.0211,-0.1718239 V 6.9692359 h 0.119372 v 0.5432044 q 0,0.07295 0.0096,0.1151521 0.01025,0.042202 0.03376,0.076567 0.02653,0.039188 0.07174,0.059083 0.04582,0.019895 0.109726,0.019895 0.06451,0 0.109726,-0.019292 0.04522,-0.019895 0.07235,-0.059686 0.02351,-0.034365 0.03316,-0.078376 0.01025,-0.044614 0.01025,-0.110329 V 6.9692359 h 0.119372 z"
         style="font-size:1.23471999px;font-family:'Droid Sans';text-anchor:end;fill:#8c8c8c;stroke:none;stroke-width:0"
         id="path4572" />
      <path
         d="M 32.401394,7.0753446 H 32.080656 V 7.86694 H 31.961283 V 7.0753446 H 31.640546 V 6.9692359 h 0.760848 z"
         style="font-size:1.23471999px;font-family:'Droid Sans';text-anchor:end;fill:#8c8c8c;stroke:none;stroke-width:0"
         id="path4574" />
    </g>
    <path
       style="fill:none;stroke:none;stroke-width:0"
       d="m 37.976501,7.4965301 h 0.246944 v 0.246944 h -0.246944 z"
       id="connector5terminal" />
    <path
       style="fill:none;stroke:#787878;stroke-width:0.246944;stroke-linecap:round"
       d="m 32.8965,10.16 h 5.080001"
       id="connector4pin" />
    <g
       aria-label="5"
       style="font-size:0.881944px;font-family:'Droid Sans';text-anchor:middle;fill:#8c8c8c;stroke:none;stroke-width:0"
       id="text23">
      <path
         d="m 35.653972,9.5858892 q 0,0.044786 -0.01636,0.085697 -0.01636,0.04091 -0.04479,0.068902 -0.03101,0.030145 -0.07407,0.046509 -0.04263,0.015934 -0.09905,0.015934 -0.05254,0 -0.1012,-0.011197 -0.04866,-0.010766 -0.08225,-0.026269 v -0.090864 h 0.006 q 0.03531,0.022393 0.08268,0.038327 0.04737,0.015503 0.09302,0.015503 0.03057,0 0.059,-0.00861 0.02885,-0.00861 0.05125,-0.030145 0.01895,-0.018517 0.02842,-0.044356 0.0099,-0.025838 0.0099,-0.059859 0,-0.033159 -0.01163,-0.055983 -0.0112,-0.022824 -0.03144,-0.036604 -0.02239,-0.016364 -0.05469,-0.022824 -0.03187,-0.00689 -0.07149,-0.00689 -0.0379,0 -0.07321,0.00517 -0.03488,0.00517 -0.06029,0.010335 V 9.1483623 h 0.385851 v 0.075361 h -0.302738 v 0.1705321 q 0.01852,-0.00172 0.0379,-0.00258 0.01938,-8.613e-4 0.03359,-8.613e-4 0.05211,0 0.0913,0.00904 0.03919,0.00861 0.07192,0.031006 0.03445,0.023685 0.0534,0.06115 0.01895,0.037465 0.01895,0.093879 z"
         style="font-size:0.881944px;font-family:'Droid Sans';text-anchor:middle;fill:#8c8c8c;stroke:none;stroke-width:0"
         id="path4579" />
    </g>
    <g
       aria-label="DIN"
       style="font-size:1.23471999px;font-family:'Droid Sans';text-anchor:end;fill:#8c8c8c;stroke:none;stroke-width:0"
       id="text25">
      <path
         d="m 30.884521,9.9589527 q 0,0.1223863 -0.05366,0.2218633 -0.05305,0.09948 -0.141679,0.15434 -0.0615,0.03798 -0.137459,0.05486 -0.07536,0.01688 -0.198954,0.01688 H 30.126084 V 9.5091963 h 0.224276 q 0.13143,0 0.2086,0.019293 0.07777,0.01869 0.13143,0.051849 0.09164,0.057275 0.142885,0.1525313 0.05125,0.095257 0.05125,0.226084 z m -0.124799,-0.00181 q 0,-0.1055059 -0.03678,-0.1778527 -0.03678,-0.072347 -0.109726,-0.1139464 -0.05305,-0.030144 -0.112741,-0.041599 -0.05969,-0.012058 -0.142885,-0.012058 h -0.112137 v 0.6927213 h 0.112137 q 0.08621,0 0.15012,-0.01266 0.06451,-0.01266 0.118167,-0.04702 0.06692,-0.04281 0.10008,-0.112741 0.03376,-0.06994 0.03376,-0.174838 z"
         style="font-size:1.23471999px;font-family:'Droid Sans';text-anchor:end;fill:#8c8c8c;stroke:none;stroke-width:0"
         id="path4582" />
      <path
         d="m 31.395169,10.4069 h -0.3545 v -0.09164 h 0.117564 V 9.6008356 h -0.117564 v -0.091639 h 0.3545 v 0.091639 h -0.117564 v 0.7144254 h 0.117564 z"
         style="font-size:1.23471999px;font-family:'Droid Sans';text-anchor:end;fill:#8c8c8c;stroke:none;stroke-width:0"
         id="path4584" />
      <path
         d="M 32.284433,10.4069 H 32.136725 L 31.711084,9.6038501 V 10.4069 H 31.599549 V 9.5091963 h 0.185087 l 0.388262,0.7331147 V 9.5091963 h 0.111535 z"
         style="font-size:1.23471999px;font-family:'Droid Sans';text-anchor:end;fill:#8c8c8c;stroke:none;stroke-width:0"
         id="path4586" />
    </g>
    <path
       style="fill:none;stroke:none;stroke-width:0"
       d="m 37.976501,10.0365 h 0.246944 v 0.246944 h -0.246944 z"
       id="connector4terminal" />
    <path
       style="fill:none;stroke:#787878;stroke-width:0.246944;stroke-linecap:round"
       d="M 0.123472,2.54 H 5.2034702"
       id="connector0pin" />
    <g
       aria-label="1"
       style="font-size:0.881944px;font-family:'Droid Sans';text-anchor:middle;fill:#8c8c8c;stroke:none;stroke-width:0"
       id="text29">
      <path
         d="M 2.8495051,2.16958 H 2.5024119 V 2.1041232 H 2.6359093 V 1.6743478 H 2.5024119 v -0.058567 q 0.02713,0 0.058136,-0.00431 0.031006,-0.00474 0.046939,-0.01335 0.019809,-0.010766 0.031006,-0.02713 0.011627,-0.016795 0.01335,-0.044786 h 0.066749 v 0.5779145 h 0.1309136 z"
         style="font-size:0.881944px;font-family:'Droid Sans';text-anchor:middle;fill:#8c8c8c;stroke:none;stroke-width:0"
         id="path4591" />
    </g>
    <g
       aria-label="CS/SHDN"
       style="font-size:1.23471999px;font-family:'Droid Sans';text-anchor:start;fill:#8c8c8c;stroke:none;stroke-width:0"
       id="text31">
      <path
         d="m 6.5112624,2.7218279 q -0.033159,0.014469 -0.060289,0.02713 -0.026527,0.012661 -0.069935,0.026527 -0.036776,0.011455 -0.080184,0.019293 -0.042805,0.00844 -0.094654,0.00844 -0.097668,0 -0.1778527,-0.02713 -0.079582,-0.027733 -0.1386649,-0.086213 -0.057878,-0.057275 -0.090433,-0.1452966 -0.032556,-0.088625 -0.032556,-0.2055857 0,-0.1109319 0.03135,-0.198351 0.03135,-0.087419 0.090434,-0.1477082 0.057275,-0.05848 0.1380619,-0.089228 0.08139,-0.030747 0.1802643,-0.030747 0.072347,0 0.1440909,0.017484 0.072347,0.017484 0.1603689,0.061495 v 0.1416793 h -0.00904 q -0.074155,-0.062098 -0.1471053,-0.090434 -0.07295,-0.028336 -0.1561487,-0.028336 -0.068127,0 -0.1229897,0.022307 -0.05426,0.021704 -0.097065,0.068127 -0.0416,0.045217 -0.065112,0.1145492 -0.02291,0.06873 -0.02291,0.1591632 0,0.094654 0.025321,0.1627804 0.025924,0.068127 0.066318,0.1109319 0.042202,0.044614 0.098271,0.066318 0.056672,0.021101 0.1193723,0.021101 0.086213,0 0.1615747,-0.029542 0.075361,-0.029542 0.1410764,-0.088625 h 0.00844 z"
         style="font-size:1.23471999px;font-family:'Droid Sans';text-anchor:start;fill:#8c8c8c;stroke:none;stroke-width:0"
         id="path4594" />
      <path
         d="m 7.3336052,2.5307116 q 0,0.052452 -0.024718,0.1036972 -0.024116,0.051246 -0.068127,0.086816 -0.048231,0.038585 -0.1127405,0.060289 -0.063906,0.021704 -0.15434,0.021704 -0.097065,0 -0.1748383,-0.018087 -0.07717,-0.018087 -0.1573545,-0.053657 V 2.5819573 h 0.00844 q 0.068127,0.056672 0.1573545,0.087419 0.089228,0.030747 0.1676036,0.030747 0.1109318,0 0.1724267,-0.041599 0.062098,-0.0416 0.062098,-0.1109319 0,-0.059686 -0.029542,-0.088022 -0.028939,-0.028336 -0.088625,-0.044011 -0.045217,-0.012058 -0.098271,-0.019895 -0.052452,-0.00784 -0.1115348,-0.019895 -0.1193723,-0.025321 -0.1772498,-0.086213 -0.057275,-0.061495 -0.057275,-0.159766 0,-0.1127405 0.095257,-0.1844845 0.095257,-0.072347 0.2417591,-0.072347 0.094654,0 0.1736325,0.018087 0.078979,0.018087 0.1398706,0.044614 v 0.1410764 h -0.00844 Q 7.2377456,2.0333268 7.1539438,2.004991 7.0707449,1.9760522 6.9833257,1.9760522 q -0.09586,0 -0.15434,0.039791 -0.057878,0.039791 -0.057878,0.1024914 0,0.056069 0.028939,0.088022 0.028939,0.031953 0.1018885,0.048834 0.038585,0.00844 0.1097261,0.020498 0.071141,0.012058 0.1205781,0.024719 0.1000799,0.026527 0.1507227,0.080184 0.050643,0.053657 0.050643,0.1501198 z"
         style="font-size:1.23471999px;font-family:'Droid Sans';text-anchor:start;fill:#8c8c8c;stroke:none;stroke-width:0"
         id="path4596" />
      <path
         d="M 7.9232322,1.8488423 7.4909597,2.9702188 H 7.3866596 L 7.8171235,1.8488423 Z"
         style="font-size:1.23471999px;font-family:'Droid Sans';text-anchor:start;fill:#8c8c8c;stroke:none;stroke-width:0"
         id="path4598" />
      <path
         d="m 8.7395462,2.5307116 q 0,0.052452 -0.024718,0.1036972 -0.024116,0.051246 -0.068127,0.086816 -0.048231,0.038585 -0.1127406,0.060289 -0.063906,0.021704 -0.15434,0.021704 -0.097065,0 -0.1748382,-0.018087 -0.07717,-0.018087 -0.1573545,-0.053657 V 2.5819573 h 0.00844 q 0.068127,0.056672 0.1573544,0.087419 0.089228,0.030747 0.1676036,0.030747 0.1109319,0 0.1724267,-0.041599 0.062098,-0.0416 0.062098,-0.1109319 0,-0.059686 -0.029542,-0.088022 -0.028939,-0.028336 -0.088625,-0.044011 -0.045217,-0.012058 -0.098271,-0.019895 -0.052451,-0.00784 -0.1115347,-0.019895 -0.1193724,-0.025321 -0.1772499,-0.086213 -0.057275,-0.061495 -0.057275,-0.159766 0,-0.1127405 0.095257,-0.1844845 0.095257,-0.072347 0.2417592,-0.072347 0.094654,0 0.1736325,0.018087 0.078979,0.018087 0.1398706,0.044614 v 0.1410764 h -0.00844 q -0.051246,-0.043408 -0.1350475,-0.071744 -0.083199,-0.028939 -0.170618,-0.028939 -0.09586,0 -0.15434,0.039791 -0.057878,0.039791 -0.057878,0.1024914 0,0.056069 0.028939,0.088022 0.028939,0.031953 0.1018886,0.048834 0.038585,0.00844 0.1097261,0.020498 0.071141,0.012058 0.1205781,0.024719 0.1000798,0.026527 0.1507226,0.080184 0.050643,0.053657 0.050643,0.1501198 z"
         style="font-size:1.23471999px;font-family:'Droid Sans';text-anchor:start;fill:#8c8c8c;stroke:none;stroke-width:0"
         id="path4600" />
      <path
         d="M 9.6179578,2.7869401 H 9.4985855 V 2.3474328 H 9.0506378 V 2.7869401 H 8.9312654 V 1.889236 H 9.0506378 V 2.2413241 H 9.4985855 V 1.889236 h 0.1193723 z"
         style="font-size:1.23471999px;font-family:'Droid Sans';text-anchor:start;fill:#8c8c8c;stroke:none;stroke-width:0"
         id="path4602" />
      <path
         d="m 10.618153,2.3389924 q 0,0.1223868 -0.05366,0.2218637 -0.05306,0.099477 -0.141679,0.15434 -0.0615,0.037982 -0.137459,0.054863 -0.07536,0.016881 -0.198954,0.016881 H 9.8597167 V 1.889236 h 0.2242753 q 0.13143,0 0.2086,0.019293 0.07777,0.01869 0.13143,0.051849 0.09164,0.057275 0.142885,0.1525313 0.05125,0.095257 0.05125,0.226084 z m -0.124798,-0.00181 q 0,-0.1055059 -0.03678,-0.1778527 -0.03678,-0.072347 -0.109726,-0.1139464 -0.05305,-0.030145 -0.11274,-0.041599 -0.05969,-0.012058 -0.142885,-0.012058 H 9.9790891 v 0.6927213 h 0.1121379 q 0.08621,0 0.150119,-0.012661 0.06451,-0.012661 0.118167,-0.047025 0.06692,-0.042805 0.10008,-0.1127405 0.03376,-0.069935 0.03376,-0.1748383 z"
         style="font-size:1.23471999px;font-family:'Droid Sans';text-anchor:start;fill:#8c8c8c;stroke:none;stroke-width:0"
         id="path4604" />
      <path
         d="M 11.497168,2.7869401 H 11.349459 L 10.923819,1.9838898 V 2.7869401 H 10.812284 V 1.889236 h 0.185087 l 0.388262,0.733115 V 1.889236 h 0.111535 z"
         style="font-size:1.23471999px;font-family:'Droid Sans';text-anchor:start;fill:#8c8c8c;stroke:none;stroke-width:0"
         id="path4606" />
    </g>
    <path
       style="fill:none;stroke:none;stroke-width:0"
       d="m -0.123472,2.4165299 h 0.246944 v 0.246944 h -0.246944 z"
       id="connector0terminal" />
    <path
       style="fill:none;stroke:#787878;stroke-width:0.246944;stroke-linecap:round"
       d="M 0.123472,5.0799999 H 5.2034702"
       id="connector1pin" />
    <g
       aria-label="2"
       style="font-size:0.881944px;font-family:'Droid Sans';text-anchor:middle;fill:#8c8c8c;stroke:none;stroke-width:0"
       id="text35">
      <path
         d="M 2.8861092,4.7095799 H 2.4520274 v -0.090003 q 0.045217,-0.038757 0.090434,-0.077515 0.045647,-0.038757 0.084835,-0.077084 0.082682,-0.080098 0.1132575,-0.1270378 0.030575,-0.04737 0.030575,-0.1020609 0,-0.049954 -0.033159,-0.077945 -0.032728,-0.028422 -0.091726,-0.028422 -0.039188,0 -0.084836,0.01378 -0.045648,0.01378 -0.089142,0.042202 h -0.00431 v -0.090434 q 0.030575,-0.015072 0.08139,-0.027561 0.051246,-0.012488 0.099046,-0.012488 0.098616,0 0.1545986,0.047801 0.055983,0.04737 0.055983,0.1287604 0,0.036604 -0.00947,0.068471 -0.00904,0.031436 -0.02713,0.059858 -0.016795,0.0267 -0.039619,0.052538 -0.022393,0.025838 -0.054691,0.057275 -0.046078,0.045217 -0.095171,0.08785 -0.049093,0.042202 -0.091726,0.078376 h 0.34494 z"
         style="font-size:0.881944px;font-family:'Droid Sans';text-anchor:middle;fill:#8c8c8c;stroke:none;stroke-width:0"
         id="path4611" />
    </g>
    <g
       aria-label="CH0"
       style="font-size:1.23471999px;font-family:'Droid Sans';text-anchor:start;fill:#8c8c8c;stroke:none;stroke-width:0"
       id="text37">
      <path
         d="m 6.5112624,5.2618279 q -0.033159,0.014469 -0.060289,0.02713 -0.026527,0.012661 -0.069935,0.026527 -0.036776,0.011455 -0.080184,0.019292 -0.042805,0.00844 -0.094654,0.00844 -0.097668,0 -0.1778527,-0.02713 -0.079582,-0.027733 -0.1386649,-0.086213 -0.057878,-0.057275 -0.090433,-0.1452967 -0.032556,-0.088625 -0.032556,-0.2055857 0,-0.1109318 0.03135,-0.198351 0.03135,-0.087419 0.090434,-0.1477082 0.057275,-0.05848 0.1380619,-0.089228 0.08139,-0.030747 0.1802643,-0.030747 0.072347,0 0.1440909,0.017484 0.072347,0.017484 0.1603689,0.061495 v 0.1416793 h -0.00904 q -0.074155,-0.062098 -0.1471053,-0.090434 -0.07295,-0.028336 -0.1561487,-0.028336 -0.068127,0 -0.1229897,0.022307 -0.05426,0.021704 -0.097065,0.068127 -0.0416,0.045217 -0.065112,0.1145492 -0.02291,0.068729 -0.02291,0.1591631 0,0.094654 0.025321,0.1627805 0.025924,0.068127 0.066318,0.1109319 0.042202,0.044614 0.098271,0.066318 0.056672,0.021101 0.1193723,0.021101 0.086213,0 0.1615747,-0.029542 0.075361,-0.029542 0.1410764,-0.088625 h 0.00844 z"
         style="font-size:1.23471999px;font-family:'Droid Sans';text-anchor:start;fill:#8c8c8c;stroke:none;stroke-width:0"
         id="path4614" />
      <path
         d="M 7.3679699,5.3269401 H 7.2485976 V 4.8874328 H 6.8006499 V 5.3269401 H 6.6812775 V 4.4292359 H 6.8006499 V 4.781324 H 7.2485976 V 4.4292359 h 0.1193723 z"
         style="font-size:1.23471999px;font-family:'Droid Sans';text-anchor:start;fill:#8c8c8c;stroke:none;stroke-width:0"
         id="path4616" />
      <path
         d="m 8.1927244,4.8777865 q 0,0.2417592 -0.075964,0.3551026 -0.075361,0.1127406 -0.2345244,0.1127406 -0.1615747,0 -0.2363331,-0.1145492 -0.074156,-0.1145493 -0.074156,-0.3520882 0,-0.2393475 0.075361,-0.3532939 0.075361,-0.1145492 0.2351274,-0.1145492 0.1615747,0 0.2357302,0.1163579 0.074758,0.115755 0.074758,0.3502794 z M 8.0341641,5.1514989 q 0.021101,-0.048834 0.028336,-0.1145492 0.00784,-0.066318 0.00784,-0.1591632 0,-0.091639 -0.00784,-0.1591631 -0.00723,-0.067524 -0.028939,-0.1145492 -0.021101,-0.046423 -0.057877,-0.069935 -0.036173,-0.023513 -0.093448,-0.023513 -0.056672,0 -0.094051,0.023513 -0.036776,0.023513 -0.05848,0.071141 -0.020498,0.044614 -0.028336,0.1163579 -0.00723,0.071744 -0.00723,0.1573544 0,0.094051 0.00663,0.1573545 0.00663,0.063304 0.028336,0.1133434 0.019895,0.047026 0.056069,0.071744 0.036776,0.024718 0.097065,0.024718 0.056672,0 0.094051,-0.023513 0.037379,-0.023513 0.057878,-0.071141 z"
         style="font-size:1.23471999px;font-family:'Droid Sans';text-anchor:start;fill:#8c8c8c;stroke:none;stroke-width:0"
         id="path4618" />
    </g>
    <path
       style="fill:none;stroke:none;stroke-width:0"
       d="m -0.123472,4.9565301 h 0.246944 v 0.246944 h -0.246944 z"
       id="connector1terminal" />
    <path
       style="fill:none;stroke:#787878;stroke-width:0.246944;stroke-linecap:round"
       d="M 0.123472,7.6199999 H 5.2034702"
       id="connector2pin" />
    <g
       aria-label="3"
       style="font-size:0.881944px;font-family:'Droid Sans';text-anchor:middle;fill:#8c8c8c;stroke:none;stroke-width:0"
       id="text41">
      <path
         d="m 2.8296958,6.9408134 q 0.020671,0.018517 0.03402,0.046509 0.01335,0.027991 0.01335,0.072347 0,0.043925 -0.015934,0.080529 -0.015934,0.036604 -0.044786,0.063734 -0.032298,0.030145 -0.076223,0.044786 -0.043494,0.014211 -0.095601,0.014211 -0.053399,0 -0.1050753,-0.012919 -0.051677,-0.012488 -0.084836,-0.027561 v -0.090003 h 0.00646 q 0.036604,0.024116 0.086127,0.040049 0.049523,0.015934 0.095601,0.015934 0.02713,0 0.057705,-0.00904 0.030575,-0.00904 0.049523,-0.0267 0.019809,-0.018948 0.029283,-0.041772 0.0099,-0.022824 0.0099,-0.057705 0,-0.034451 -0.011197,-0.056844 -0.010766,-0.022824 -0.030145,-0.035743 -0.019379,-0.01335 -0.046939,-0.018087 -0.027561,-0.00517 -0.059428,-0.00517 h -0.038757 v -0.071486 h 0.030145 q 0.065457,0 0.1042141,-0.02713 0.039188,-0.027561 0.039188,-0.080099 0,-0.023254 -0.0099,-0.04048 -0.0099,-0.017656 -0.027561,-0.028853 -0.018517,-0.011197 -0.039619,-0.015503 -0.021101,-0.00431 -0.047801,-0.00431 -0.040911,0 -0.086989,0.014642 -0.046078,0.014642 -0.086989,0.041341 h -0.00431 v -0.090003 q 0.030575,-0.015072 0.08139,-0.027561 0.051246,-0.012919 0.099047,-0.012919 0.046939,0 0.082682,0.00861 0.035743,0.00861 0.064595,0.027561 0.031006,0.02067 0.046939,0.049954 0.015934,0.029283 0.015934,0.068471 0,0.053399 -0.037896,0.093448 -0.037465,0.039619 -0.088711,0.049954 v 0.00603 q 0.020671,0.00345 0.04737,0.014642 0.0267,0.010766 0.045217,0.02713 z"
         style="font-size:0.881944px;font-family:'Droid Sans';text-anchor:middle;fill:#8c8c8c;stroke:none;stroke-width:0"
         id="path4623" />
    </g>
    <g
       aria-label="CH1"
       style="font-size:1.23471999px;font-family:'Droid Sans';text-anchor:start;fill:#8c8c8c;stroke:none;stroke-width:0"
       id="text43">
      <path
         d="m 6.5112624,7.8018278 q -0.033159,0.014469 -0.060289,0.02713 -0.026527,0.012661 -0.069935,0.026527 -0.036776,0.011455 -0.080184,0.019292 -0.042805,0.00844 -0.094654,0.00844 -0.097668,0 -0.1778527,-0.02713 Q 5.9487654,7.828355 5.8896821,7.7698746 5.8318046,7.7126 5.7992486,7.624578 5.7666925,7.5359531 5.7666925,7.4189923 q 0,-0.1109319 0.03135,-0.198351 0.03135,-0.087419 0.090434,-0.1477082 0.057275,-0.05848 0.1380619,-0.089228 0.08139,-0.030747 0.1802643,-0.030747 0.072347,0 0.1440909,0.017484 0.072347,0.017484 0.1603689,0.061495 v 0.1416793 h -0.00904 q -0.074155,-0.062098 -0.1471053,-0.090434 -0.07295,-0.028336 -0.1561487,-0.028336 -0.068127,0 -0.1229897,0.022307 -0.05426,0.021704 -0.097065,0.068127 -0.0416,0.045217 -0.065112,0.1145493 -0.02291,0.068729 -0.02291,0.1591631 0,0.094654 0.025321,0.1627805 0.025924,0.068127 0.066318,0.1109318 0.042202,0.044614 0.098271,0.066318 0.056672,0.021101 0.1193723,0.021101 0.086213,0 0.1615747,-0.029542 0.075361,-0.029542 0.1410764,-0.088625 h 0.00844 z"
         style="font-size:1.23471999px;font-family:'Droid Sans';text-anchor:start;fill:#8c8c8c;stroke:none;stroke-width:0"
         id="path4626" />
      <path
         d="M 7.3679699,7.86694 H 7.2485976 V 7.4274328 H 6.8006499 V 7.86694 H 6.6812775 V 6.9692359 H 6.8006499 V 7.321324 H 7.2485976 V 6.9692359 h 0.1193723 z"
         style="font-size:1.23471999px;font-family:'Droid Sans';text-anchor:start;fill:#8c8c8c;stroke:none;stroke-width:0"
         id="path4628" />
      <path
         d="M 8.1426844,7.86694 H 7.6567546 V 7.7753006 H 7.8436507 V 7.1736158 H 7.6567546 v -0.081993 q 0.037982,0 0.08139,-0.00603 0.043408,-0.00663 0.065715,-0.01869 0.027733,-0.015072 0.043408,-0.037982 0.016278,-0.023513 0.01869,-0.062701 h 0.093448 v 0.8090792 h 0.1832787 z"
         style="font-size:1.23471999px;font-family:'Droid Sans';text-anchor:start;fill:#8c8c8c;stroke:none;stroke-width:0"
         id="path4630" />
    </g>
    <path
       style="fill:none;stroke:none;stroke-width:0"
       d="m -0.123472,7.4965301 h 0.246944 v 0.246944 h -0.246944 z"
       id="connector2terminal" />
    <path
       style="fill:none;stroke:#787878;stroke-width:0.246944;stroke-linecap:round"
       d="M 0.123472,10.16 H 5.2034702"
       id="connector3pin" />
    <g
       aria-label="4"
       style="font-size:0.881944px;font-family:'Droid Sans';text-anchor:middle;fill:#8c8c8c;stroke:none;stroke-width:0"
       id="text47">
      <path
         d="M 2.9007509,9.6091436 H 2.8055801 V 9.7895803 H 2.7228979 V 9.6091436 H 2.4158539 V 9.5100971 L 2.726343,9.1483623 h 0.079237 v 0.3918794 h 0.095171 z M 2.7228979,9.5402417 V 9.2508538 L 2.4744205,9.5402417 Z"
         style="font-size:0.881944px;font-family:'Droid Sans';text-anchor:middle;fill:#8c8c8c;stroke:none;stroke-width:0"
         id="path4635" />
    </g>
    <g
       aria-label="GND"
       style="font-size:1.23471999px;font-family:'Droid Sans';text-anchor:start;fill:#8c8c8c;stroke:none;stroke-width:0"
       id="text49">
      <path
         d="m 6.5667283,10.340582 q -0.073553,0.03376 -0.1609718,0.05908 -0.086816,0.02472 -0.1682065,0.02472 -0.1049029,0 -0.1923221,-0.02894 -0.087419,-0.02894 -0.148914,-0.08682 -0.062098,-0.05848 -0.09586,-0.145899 -0.033762,-0.08802 -0.033762,-0.205586 0,-0.2152319 0.1254012,-0.3394274 0.1260041,-0.1247984 0.3454563,-0.1247984 0.076567,0 0.1561487,0.01869 0.080185,0.018087 0.1724267,0.062098 v 0.1416793 h -0.010852 q -0.01869,-0.014469 -0.05426,-0.037982 -0.035571,-0.023513 -0.069935,-0.039188 -0.041599,-0.01869 -0.094654,-0.030747 -0.052452,-0.012661 -0.1193723,-0.012661 -0.1507227,0 -0.2387447,0.097065 -0.087419,0.096463 -0.087419,0.2616546 0,0.1742353 0.091639,0.2713003 0.091639,0.09646 0.2495967,0.09646 0.057878,0 0.1151521,-0.01145 0.057878,-0.01145 0.1012857,-0.02954 V 10.060238 H 6.2080084 V 9.9553353 h 0.3587199 z"
         style="font-size:1.23471999px;font-family:'Droid Sans';text-anchor:start;fill:#8c8c8c;stroke:none;stroke-width:0"
         id="path4638" />
      <path
         d="M 7.4602122,10.4069 H 7.312504 L 6.8868632,9.6038501 V 10.4069 H 6.7753285 V 9.5091963 H 6.9604159 L 7.3486775,10.242311 V 9.5091963 h 0.1115347 z"
         style="font-size:1.23471999px;font-family:'Droid Sans';text-anchor:start;fill:#8c8c8c;stroke:none;stroke-width:0"
         id="path4640" />
      <path
         d="m 8.4573933,9.9589527 q 0,0.1223863 -0.053657,0.2218633 -0.053054,0.09948 -0.1416793,0.15434 -0.061495,0.03798 -0.1374591,0.05486 -0.075361,0.01688 -0.1989539,0.01688 H 7.6989569 V 9.5091963 h 0.2242753 q 0.1314302,0 0.2086002,0.019293 0.077773,0.01869 0.1314301,0.051849 0.091639,0.057275 0.1428851,0.1525313 0.051246,0.095257 0.051246,0.226084 z M 8.332595,9.957144 q 0,-0.1055059 -0.036776,-0.1778527 Q 8.2590423,9.7069444 8.1860925,9.6653449 8.1330382,9.6352004 8.073352,9.6237455 8.0136658,9.6116877 7.9304669,9.6116877 H 7.8183293 v 0.6927213 h 0.1121376 q 0.086213,0 0.1501198,-0.01266 0.064509,-0.01266 0.1181665,-0.04702 0.066921,-0.04281 0.1000799,-0.112741 0.033762,-0.06994 0.033762,-0.174838 z"
         style="font-size:1.23471999px;font-family:'Droid Sans';text-anchor:start;fill:#8c8c8c;stroke:none;stroke-width:0"
         id="path4642" />
    </g>
    <path
       style="fill:none;stroke:none;stroke-width:0"
       d="m -0.123472,10.0365 h 0.246944 v 0.246944 h -0.246944 z"
       id="connector3terminal" />
    <g
       aria-label="MCP"
       style="font-size:1.49931002px;font-family:'Droid Sans';text-anchor:middle;fill:#000000;stroke:none;stroke-width:0"
       id="label">
      <path
         d="M 18.716838,4.90944 H 18.571885 V 3.970175 l -0.303083,0.6391102 h -0.08639 L 17.881529,3.970175 V 4.90944 H 17.746094 V 3.8193655 h 0.197663 l 0.290637,0.6068985 0.281121,-0.6068985 h 0.201323 z"
         style="font-size:1.49931002px;font-family:'Droid Sans';text-anchor:middle;fill:#000000;stroke:none;stroke-width:0"
         id="path4646" />
      <path
         d="m 19.853034,4.8303749 q -0.04027,0.01757 -0.07321,0.032944 -0.03221,0.015374 -0.08492,0.032212 -0.04466,0.01391 -0.09737,0.023427 -0.05198,0.010249 -0.114937,0.010249 -0.118598,0 -0.215965,-0.032944 -0.09663,-0.033676 -0.16838,-0.1046881 -0.07028,-0.069548 -0.109812,-0.1764325 -0.03953,-0.1076165 -0.03953,-0.249641 0,-0.1347036 0.03807,-0.2408559 0.03807,-0.1061524 0.109812,-0.1793609 0.06955,-0.071012 0.167648,-0.1083485 0.09883,-0.037336 0.218893,-0.037336 0.08785,0 0.174968,0.021231 0.08785,0.021231 0.194735,0.074673 v 0.1720399 h -0.01098 q -0.09005,-0.075405 -0.178629,-0.1098127 -0.08858,-0.034408 -0.18961,-0.034408 -0.08273,0 -0.149345,0.027087 -0.06589,0.026355 -0.117866,0.082726 -0.05051,0.054906 -0.07906,0.1390962 -0.02782,0.083458 -0.02782,0.1932704 0,0.1149373 0.03075,0.197663 0.03148,0.082726 0.08053,0.1347036 0.05125,0.054174 0.119329,0.080529 0.06882,0.025623 0.144953,0.025623 0.104688,0 0.196199,-0.035872 0.09151,-0.035872 0.171308,-0.1076164 h 0.01025 z"
         style="font-size:1.49931002px;font-family:'Droid Sans';text-anchor:middle;fill:#000000;stroke:none;stroke-width:0"
         id="path4648" />
      <path
         d="m 20.772533,4.1488038 q 0,0.072476 -0.02562,0.1347036 -0.02489,0.061495 -0.07028,0.1068844 -0.05637,0.05637 -0.13324,0.084922 -0.07687,0.027819 -0.194002,0.027819 H 20.204435 V 4.90944 H 20.059482 V 3.8193655 h 0.295762 q 0.0981,0 0.166184,0.016838 0.06808,0.016106 0.120794,0.051246 0.06223,0.041729 0.0959,0.1039561 0.03441,0.062227 0.03441,0.1573983 z m -0.15081,0.00366 q 0,-0.056371 -0.01977,-0.098099 -0.01977,-0.041729 -0.06003,-0.068084 -0.03514,-0.022695 -0.08053,-0.032212 Q 20.416739,3.94382 20.347923,3.94382 h -0.143488 v 0.4355905 h 0.122258 q 0.08785,0 0.142757,-0.015374 0.05491,-0.016106 0.08931,-0.050514 0.03441,-0.03514 0.04832,-0.073941 0.01464,-0.038801 0.01464,-0.087118 z"
         style="font-size:1.49931002px;font-family:'Droid Sans';text-anchor:middle;fill:#000000;stroke:none;stroke-width:0"
         id="path4650" />
    </g>
    <g
       aria-label="3002"
       style="font-size:1.49931002px;font-family:'Droid Sans';text-anchor:middle;fill:#000000;stroke:none;stroke-width:0"
       id="text53">
      <path
         d="m 18.059426,5.983845 q 0.03514,0.03148 0.05784,0.079065 0.02269,0.047586 0.02269,0.1229903 0,0.074673 -0.02709,0.1368999 -0.02709,0.062227 -0.07614,0.1083486 -0.05491,0.051246 -0.129579,0.076137 -0.07394,0.024159 -0.162523,0.024159 -0.09078,0 -0.178628,-0.021963 -0.08785,-0.02123 -0.144221,-0.046853 V 6.3096229 h 0.01098 q 0.06223,0.040997 0.146417,0.068084 0.08419,0.027087 0.162523,0.027087 0.04612,0 0.0981,-0.015374 0.05198,-0.015374 0.08419,-0.045389 0.03368,-0.032212 0.04978,-0.071012 0.01684,-0.038801 0.01684,-0.098099 0,-0.058567 -0.01903,-0.096635 -0.0183,-0.0388 -0.05125,-0.060763 -0.03294,-0.022695 -0.0798,-0.030748 -0.04685,-0.00878 -0.101028,-0.00878 h -0.06589 V 5.8564623 h 0.05125 q 0.111277,0 0.177165,-0.046121 0.06662,-0.046853 0.06662,-0.1361678 0,-0.039533 -0.01684,-0.068816 -0.01684,-0.030016 -0.04685,-0.04905 -0.03148,-0.019034 -0.06735,-0.026355 -0.03587,-0.00732 -0.08126,-0.00732 -0.06955,0 -0.147881,0.024891 -0.07833,0.024891 -0.147882,0.07028 h -0.0073 V 5.4647968 q 0.05198,-0.025623 0.138364,-0.046853 0.08712,-0.021963 0.168379,-0.021963 0.0798,0 0.140561,0.014642 0.06076,0.014642 0.109812,0.046853 0.05271,0.03514 0.0798,0.084922 0.02709,0.049782 0.02709,0.1164015 0,0.090778 -0.06442,0.1588625 -0.06369,0.067352 -0.150809,0.084922 v 0.010249 q 0.03514,0.00586 0.08053,0.024891 0.04539,0.018302 0.07687,0.046121 z"
         style="font-size:1.49931002px;font-family:'Droid Sans';text-anchor:middle;fill:#000000;stroke:none;stroke-width:0"
         id="path4653" />
      <path
         d="m 19.108504,5.9633467 q 0,0.293566 -0.09224,0.431198 -0.09151,0.1368999 -0.284781,0.1368999 -0.196199,0 -0.286977,-0.1390961 -0.09005,-0.1390962 -0.09005,-0.4275377 0,-0.2906377 0.09151,-0.4290018 0.09151,-0.1390961 0.285513,-0.1390961 0.196199,0 0.286245,0.1412924 0.09078,0.1405603 0.09078,0.4253414 z m -0.192539,0.3323665 q 0.02562,-0.059299 0.03441,-0.1390961 0.0095,-0.080529 0.0095,-0.1932704 0,-0.111277 -0.0095,-0.1932705 -0.0088,-0.081994 -0.03514,-0.1390961 -0.02562,-0.056371 -0.07028,-0.084922 -0.04393,-0.028551 -0.113473,-0.028551 -0.06882,0 -0.114205,0.028551 -0.04466,0.028551 -0.07101,0.086386 -0.02489,0.054174 -0.03441,0.1412924 -0.0088,0.087118 -0.0088,0.1910741 0,0.1142053 0.0081,0.1910742 0.0081,0.076869 0.03441,0.137632 0.02416,0.057103 0.06808,0.087118 0.04466,0.030016 0.117866,0.030016 0.06882,0 0.114205,-0.028551 0.04539,-0.028551 0.07028,-0.086386 z"
         style="font-size:1.49931002px;font-family:'Droid Sans';text-anchor:middle;fill:#000000;stroke:none;stroke-width:0"
         id="path4655" />
      <path
         d="m 20.063142,5.9633467 q 0,0.293566 -0.09224,0.431198 -0.09151,0.1368999 -0.284781,0.1368999 -0.196199,0 -0.286978,-0.1390961 -0.09005,-0.1390962 -0.09005,-0.4275377 0,-0.2906377 0.09151,-0.4290018 0.09151,-0.1390961 0.285513,-0.1390961 0.196198,0 0.286245,0.1412924 0.09078,0.1405603 0.09078,0.4253414 z m -0.192538,0.3323665 q 0.02562,-0.059299 0.03441,-0.1390961 0.0095,-0.080529 0.0095,-0.1932704 0,-0.111277 -0.0095,-0.1932705 -0.0088,-0.081994 -0.03514,-0.1390961 -0.02562,-0.056371 -0.07028,-0.084922 -0.04393,-0.028551 -0.113473,-0.028551 -0.06882,0 -0.114206,0.028551 -0.04466,0.028551 -0.07101,0.086386 -0.02489,0.054174 -0.03441,0.1412924 -0.0088,0.087118 -0.0088,0.1910741 0,0.1142053 0.0081,0.1910742 0.0081,0.076869 0.03441,0.137632 0.02416,0.057103 0.06808,0.087118 0.04466,0.030016 0.117866,0.030016 0.06882,0 0.114205,-0.028551 0.04539,-0.028551 0.07028,-0.086386 z"
         style="font-size:1.49931002px;font-family:'Droid Sans';text-anchor:middle;fill:#000000;stroke:none;stroke-width:0"
         id="path4657" />
      <path
         d="M 21.019245,6.50875 H 20.281304 V 6.3557442 q 0.07687,-0.065888 0.153738,-0.1317753 0.0776,-0.065888 0.14422,-0.1310432 0.140561,-0.1361678 0.192539,-0.2159651 0.05198,-0.080529 0.05198,-0.1735041 0,-0.084922 -0.05637,-0.1325074 -0.05564,-0.048318 -0.155934,-0.048318 -0.06662,0 -0.144221,0.023427 -0.0776,0.023427 -0.151541,0.071744 h -0.0073 V 5.4640647 q 0.05198,-0.025623 0.138364,-0.046853 0.08712,-0.02123 0.16838,-0.02123 0.167647,0 0.262818,0.081261 0.09517,0.080529 0.09517,0.2188934 0,0.062227 -0.01611,0.1164016 -0.01537,0.053442 -0.04612,0.1017598 -0.02855,0.045389 -0.06735,0.089314 -0.03807,0.043925 -0.09297,0.097367 -0.07833,0.076869 -0.16179,0.1493454 -0.08346,0.071744 -0.155935,0.1332394 h 0.5864 z"
         style="font-size:1.49931002px;font-family:'Droid Sans';text-anchor:middle;fill:#000000;stroke:none;stroke-width:0"
         id="path4659" />
    </g>
  </g>
</svg>
