<?xml version="1.0" encoding="UTF-8" standalone="no"?>
<svg
   xmlns:dc="http://purl.org/dc/elements/1.1/"
   xmlns:cc="http://creativecommons.org/ns#"
   xmlns:rdf="http://www.w3.org/1999/02/22-rdf-syntax-ns#"
   xmlns:svg="http://www.w3.org/2000/svg"
   xmlns="http://www.w3.org/2000/svg"
   viewBox="0 0 114.256 38.879"
   height="0.539986in"
   y="0px"
   gorn="0"
   width="1.58689in"
   version="1.1"
   x="0px"
   id="Ebene_1"
   xml:space="preserve"
   enable-background="new 0 0 114.256 38.879"><metadata
     id="metadata4753"><rdf:RDF><cc:Work
         rdf:about=""><dc:format>image/svg+xml</dc:format><dc:type
           rdf:resource="http://purl.org/dc/dcmitype/StillImage" />
           
           <dc:title></dc:title></cc:Work></rdf:RDF></metadata><defs
     id="defs130" />
     
     <g
     gorn="0.3"
     id="breadboard"><g
       id="g212"><circle
         id="connector1pin"
         cy="33.84"
         stroke="#9A916C"
         stroke-width="0.381"
         fill="none"
         gorn="0.3.1"
         cx="39.128"
         r="1.98" />
         
         <path
         id="path6"
         fill="#9A916C"
         gorn="0.3.2"
         d="M39.128,28.799c1.392,0,2.52,1.129,2.52,2.521v5.04c0,1.393-1.128,2.52-2.52,2.52l0,0   c-1.392,0-2.52-1.127-2.52-2.52v-5.04C36.608,29.928,37.736,28.799,39.128,28.799L39.128,28.799z M37.688,33.84   c0,0.795,0.644,1.439,1.439,1.44s1.44-0.644,1.441-1.438c0-0.001,0-0.002,0-0.002c0-0.795-0.644-1.441-1.439-1.441   c-0.795,0-1.44,0.644-1.441,1.439C37.688,33.838,37.688,33.839,37.688,33.84z" />
         
         <circle
         id="connector2pin"
         cy="33.84"
         stroke="#9A916C"
         stroke-width="0.381"
         fill="none"
         gorn="0.3.3"
         cx="46.328"
         r="1.98" />
         
         <path
         id="path9"
         fill="#9A916C"
         gorn="0.3.4"
         d="M46.328,28.799c1.392,0,2.52,1.129,2.52,2.521v5.04c0,1.393-1.128,2.52-2.52,2.52l0,0   c-1.392,0-2.52-1.127-2.52-2.52v-5.04C43.808,29.928,44.937,28.799,46.328,28.799L46.328,28.799z M44.888,33.84   c0,0.795,0.644,1.439,1.439,1.44s1.44-0.644,1.441-1.438c0-0.001,0-0.002,0-0.002c0-0.795-0.644-1.441-1.439-1.441   s-1.44,0.644-1.441,1.439C44.888,33.838,44.888,33.839,44.888,33.84z" />
         
         <circle
         id="connector3pin"
         cy="33.84"
         stroke="#9A916C"
         stroke-width="0.381"
         fill="none"
         gorn="0.3.5"
         cx="53.528"
         r="1.98" />
         
         <path
         id="path12"
         fill="#9A916C"
         gorn="0.3.6"
         d="M53.528,28.799c1.392,0,2.52,1.129,2.52,2.521v5.04c0,1.393-1.128,2.52-2.52,2.52l0,0   c-1.392,0-2.52-1.127-2.52-2.52v-5.04C51.008,29.928,52.136,28.799,53.528,28.799L53.528,28.799z M52.088,33.84   c0,0.795,0.645,1.439,1.44,1.439c0.795,0,1.44-0.645,1.44-1.439s-0.645-1.44-1.44-1.44C52.733,32.4,52.088,33.045,52.088,33.84   L52.088,33.84z" />
         
         <circle
         id="connector4pin"
         cy="33.84"
         stroke="#9A916C"
         stroke-width="0.381"
         fill="none"
         gorn="0.3.7"
         cx="60.728"
         r="1.98" />
         
         <path
         id="path15"
         fill="#9A916C"
         gorn="0.3.8"
         d="M60.728,28.799c1.393,0,2.521,1.129,2.521,2.521v5.04c0,1.393-1.128,2.52-2.521,2.52l0,0   c-1.391,0-2.52-1.127-2.52-2.52v-5.04C58.208,29.928,59.337,28.799,60.728,28.799L60.728,28.799z M59.288,33.84   c0,0.795,0.645,1.439,1.439,1.439c0.796,0,1.44-0.645,1.44-1.439s-0.645-1.44-1.44-1.44C59.933,32.4,59.288,33.045,59.288,33.84   L59.288,33.84z" />
         
         <circle
         id="connector5pin"
         cy="33.84"
         stroke="#9A916C"
         stroke-width="0.381"
         fill="none"
         gorn="0.3.9"
         cx="67.929"
         r="1.98" />
         
         <path
         id="path18"
         fill="#9A916C"
         gorn="0.3.10"
         d="M67.929,28.799c1.391,0,2.52,1.129,2.52,2.521v5.04c0,1.393-1.129,2.52-2.52,2.52l0,0   c-1.393,0-2.521-1.127-2.521-2.52v-5.04C65.408,29.928,66.536,28.799,67.929,28.799L67.929,28.799z M66.488,33.84   c0,0.795,0.645,1.439,1.44,1.439c0.795,0,1.439-0.645,1.439-1.439s-0.645-1.44-1.439-1.44C67.133,32.4,66.488,33.045,66.488,33.84   L66.488,33.84z" />
         
         <circle
         id="connector6pin"
         cy="33.84"
         stroke="#9A916C"
         stroke-width="0.381"
         fill="none"
         gorn="0.3.12"
         cx="75.128"
         r="1.98" />
         
         <path
         id="path24"
         fill="#9A916C"
         gorn="0.3.13"
         d="M75.128,28.799c1.393,0,2.52,1.129,2.52,2.521v5.04c0,1.393-1.127,2.52-2.52,2.52l0,0   c-1.392,0-2.52-1.127-2.52-2.52v-5.04C72.608,29.928,73.736,28.799,75.128,28.799L75.128,28.799z M73.688,33.84   c0,0.795,0.645,1.439,1.439,1.439s1.439-0.645,1.439-1.439s-0.645-1.44-1.439-1.44S73.688,33.045,73.688,33.84L73.688,33.84z" />
         
         <circle
         id="connector13pin"
         cy="5.04"
         stroke="#9A916C"
         stroke-width="0.381"
         fill="none"
         gorn="0.3.15"
         cx="46.328"
         r="1.98" />
         
         <path
         id="path30"
         fill="#9A916C"
         gorn="0.3.16"
         d="M46.328,0c1.392,0,2.52,1.128,2.52,2.52v5.04c0,1.392-1.128,2.52-2.52,2.52l0,0   c-1.392,0-2.52-1.128-2.52-2.52V2.52C43.808,1.128,44.937,0,46.328,0L46.328,0z M44.888,5.04c0,0.795,0.644,1.44,1.439,1.441   s1.44-0.644,1.441-1.439c0,0,0-0.001,0-0.002c0-0.795-0.644-1.44-1.439-1.441s-1.44,0.644-1.441,1.439   C44.888,5.039,44.888,5.04,44.888,5.04z" />
         
         <circle
         id="connector12pin"
         cy="5.04"
         stroke="#9A916C"
         stroke-width="0.381"
         fill="none"
         gorn="0.3.17"
         cx="53.528"
         r="1.98" />
         
         <path
         id="path33"
         fill="#9A916C"
         gorn="0.3.18"
         d="M53.528,0c1.392,0,2.52,1.128,2.52,2.52v5.04c0,1.392-1.128,2.52-2.52,2.52l0,0   c-1.392,0-2.52-1.128-2.52-2.52V2.52C51.008,1.128,52.136,0,53.528,0L53.528,0z M52.088,5.04c0,0.795,0.645,1.44,1.44,1.44   c0.795,0,1.44-0.645,1.44-1.44s-0.645-1.44-1.44-1.44C52.733,3.6,52.088,4.245,52.088,5.04L52.088,5.04z" />
         
         <circle
         id="connector11pin"
         cy="5.04"
         stroke="#9A916C"
         stroke-width="0.381"
         fill="none"
         gorn="0.3.19"
         cx="60.728"
         r="1.98" />
         
         <path
         id="path36"
         fill="#9A916C"
         gorn="0.3.20"
         d="M60.728,0c1.393,0,2.521,1.128,2.521,2.52v5.04c0,1.392-1.128,2.52-2.521,2.52l0,0   c-1.391,0-2.52-1.128-2.52-2.52V2.52C58.208,1.128,59.337,0,60.728,0L60.728,0z M59.288,5.04c0,0.795,0.645,1.44,1.439,1.44   c0.796,0,1.44-0.645,1.44-1.44s-0.645-1.44-1.44-1.44C59.933,3.6,59.288,4.245,59.288,5.04L59.288,5.04z" />
         
         <circle
         id="connector9pin"
         cy="5.04"
         stroke="#9A916C"
         stroke-width="0.381"
         fill="none"
         gorn="0.3.21"
         cx="75.128"
         r="1.98" />
         
         <path
         id="path39"
         fill="#9A916C"
         gorn="0.3.22"
         d="M75.128,0c1.393,0,2.52,1.128,2.52,2.52v5.04c0,1.392-1.127,2.52-2.52,2.52l0,0   c-1.392,0-2.52-1.128-2.52-2.52V2.52C72.608,1.128,73.736,0,75.128,0L75.128,0z M73.688,5.04c0,0.795,0.645,1.44,1.439,1.44   s1.439-0.645,1.439-1.44S75.923,3.6,75.128,3.6S73.688,4.245,73.688,5.04L73.688,5.04z" />
         
         <circle
         id="connector10pin"
         cy="5.04"
         stroke="#9A916C"
         stroke-width="0.381"
         fill="none"
         gorn="0.3.23"
         cx="67.929"
         r="1.98" />
         
         <path
         id="path42"
         fill="#9A916C"
         gorn="0.3.24"
         d="M67.929,0c1.391,0,2.52,1.128,2.52,2.52v5.04c0,1.392-1.129,2.52-2.52,2.52l0,0   c-1.393,0-2.521-1.128-2.521-2.52V2.52C65.408,1.128,66.536,0,67.929,0L67.929,0z M66.488,5.04c0,0.795,0.645,1.44,1.44,1.44   c0.795,0,1.439-0.645,1.439-1.44S68.724,3.6,67.929,3.6C67.133,3.6,66.488,4.245,66.488,5.04L66.488,5.04z" />
         
         <circle
         id="connector14pin"
         cy="5.04"
         stroke="#9A916C"
         stroke-width="0.381"
         fill="none"
         gorn="0.3.25"
         cx="39.128"
         r="1.98" />
         
         <path
         id="path45"
         fill="#9A916C"
         gorn="0.3.26"
         d="M39.128,0c1.392,0,2.52,1.128,2.52,2.52v5.04c0,1.392-1.128,2.52-2.52,2.52l0,0   c-1.392,0-2.52-1.128-2.52-2.52V2.52C36.608,1.128,37.736,0,39.128,0L39.128,0z M37.688,5.04c0,0.795,0.644,1.44,1.439,1.441   s1.44-0.644,1.441-1.439c0,0,0-0.001,0-0.002c0-0.795-0.644-1.44-1.439-1.441c-0.795,0-1.44,0.644-1.441,1.439   C37.688,5.039,37.688,5.04,37.688,5.04z" />
         
         <polygon
         id="polygon50"
         points="-0.112,1.008 113.253,1.008 114.368,2.008 114.368,37.872 0.888,37.872 -0.112,36.565  "
         gorn="0.3.28"
         fill="#323232" />
         
         <polygon
         id="polygon52"
         points="9.605,4.5 22.048,4.5 22.877,5.327 21.217,7.816 10.433,7.816 8.777,5.327  "
         gorn="0.3.29"
         fill="#646464" />
         
         <polygon
         id="polygon54"
         points="23.707,6.156 24.536,7.816 22.877,16.942 21.217,18.599 19.56,16.942 21.217,8.644  "
         gorn="0.3.30"
         style="fill:#0000ff"
         fill="#0000ff" />
         
         <polygon
         id="polygon56"
         points="21.217,19.428 22.048,21.086 20.389,30.213 18.729,31.872 17.071,30.213 18.729,21.92  "
         gorn="0.3.31"
         style="fill:#0000ff"
         fill="#0000ff" />
         
         <polygon
         id="polygon58"
         fill="#646464"
         points="17.071,33.53 4.628,33.53 3.798,32.698 5.457,30.213 16.242,30.213 17.9,32.7  "
         gorn="0.3.32" />
         
         <polygon
         id="polygon60"
         fill="#0000ff"
         points="2.968,31.872 2.14,30.213 3.798,21.086 5.457,19.428 7.115,21.086 5.457,29.381  "
         gorn="0.3.33"
         style="fill:#0000ff" />
         
         <polygon
         id="polygon62"
         fill="#0000ff"
         points="5.457,18.599 4.628,16.942 6.288,7.816 7.945,6.156 9.605,7.816 7.945,16.112  "
         gorn="0.3.34"
         style="fill:#0000ff" />
         
         <polygon
         id="polygon64"
         fill="#0000ff"
         points="6.288,18.599 7.945,16.942 18.729,16.942 20.389,18.599 18.729,20.258 7.945,20.258  "
         gorn="0.3.35"
         style="fill:#0000ff" />
         
         <circle
         cy="31.868"
         id="circle66"
         fill="#646464"
         gorn="0.3.36"
         cx="22.521"
         r="1.748" />
         
         <polygon
         id="polygon68"
         fill="#0000ff"
         points="38.394,4.5 50.836,4.5 51.665,5.327 50.005,7.816 39.221,7.816 37.564,5.327  "
         gorn="0.3.37"
         style="fill:#0000ff" />
         
         <polygon
         id="polygon70"
         fill="#0000ff"
         points="52.495,6.156 53.324,7.816 51.665,16.942 50.005,18.599 48.348,16.942 50.005,8.644  "
         gorn="0.3.38"
         style="fill:#0000ff" />
         
         <polygon
         id="polygon72"
         fill="#0000ff"
         points="50.005,19.428 50.836,21.086 49.177,30.213 47.518,31.872 45.859,30.213 47.518,21.92  "
         gorn="0.3.39"
         style="fill:#0000ff" />
         
         <polygon
         id="polygon74"
         fill="#646464"
         points="45.859,33.53 33.416,33.53 32.586,32.698 34.245,30.213 45.03,30.213 46.688,32.7  "
         gorn="0.3.40"
         style="fill:#646464" />
         
         <polygon
         id="polygon76"
         fill="#0000ff"
         points="31.756,31.872 30.928,30.213 32.586,21.086 34.245,19.428 35.903,21.086 34.245,29.381  "
         gorn="0.3.41"
         style="fill:#0000ff" />
         
         <polygon
         id="polygon78"
         fill="#0000ff"
         points="34.245,18.599 33.416,16.942 35.076,7.816 36.733,6.156 38.394,7.816 36.733,16.112  "
         gorn="0.3.42"
         style="fill:#0000ff" />
         
         <polygon
         id="polygon80"
         fill="#0000ff"
         points="35.076,18.599 36.733,16.942 47.518,16.942 49.177,18.599 47.518,20.258 36.733,20.258  "
         gorn="0.3.43"
         style="fill:#0000ff" />
         
         <circle
         cy="31.868"
         id="circle82"
         fill="#646464"
         gorn="0.3.44"
         cx="51.31"
         r="1.748" />
         
         <polygon
         id="polygon90"
         fill="#646464"
         points="67.194,4.5 79.636,4.5 80.466,5.327 78.806,7.816 68.021,7.816 66.364,5.327  "
         gorn="0.3.45" />
         
         <polygon
         id="polygon92"
         fill="#646464"
         points="81.294,6.156 82.124,7.816 80.466,16.942 78.806,18.599 77.147,16.942 78.806,8.644  "
         gorn="0.3.46"
         style="fill:#646464" />
         
         <polygon
         id="polygon94"
         fill="#646464"
         points="78.806,19.428 79.636,21.086 77.978,30.213 76.317,31.872 74.659,30.213 76.317,21.92  "
         gorn="0.3.47"
         style="fill:#646464" />
         
         <polygon
         id="polygon96"
         fill="#0000ff"
         points="74.659,33.53 62.216,33.53 61.386,32.698 63.046,30.213 73.829,30.213 75.487,32.7  "
         gorn="0.3.48"
         style="fill:#0000ff" />
         
         <polygon
         id="polygon98"
         fill="#0000ff"
         points="60.556,31.872 59.728,30.213 61.386,21.086 63.046,19.428 64.704,21.086 63.046,29.381  "
         gorn="0.3.49"
         style="fill:#0000ff" />
         
         <polygon
         id="polygon100"
         fill="#0000ff"
         points="63.046,18.599 62.216,16.942 63.876,7.816 65.534,6.156 67.194,7.816 65.534,16.112  "
         gorn="0.3.50"
         style="fill:#0000ff" />
         
         <polygon
         id="polygon102"
         fill="#646464"
         points="63.876,18.599 65.534,16.942 76.317,16.942 77.978,18.599 76.317,20.258 65.534,20.258  "
         gorn="0.3.51"
         style="fill:#646464" />
         
         <circle
         cy="31.868"
         id="circle104"
         fill="#646464"
         gorn="0.3.52"
         cx="80.11"
         r="1.748" />
         
         <polygon
         id="polygon106"
         fill="#0000ff"
         points="96.069,4.5 108.511,4.5 109.341,5.327 107.681,7.816 96.896,7.816 95.239,5.327  "
         gorn="0.3.53"
         style="fill:#0000ff" />
         
         <polygon
         id="polygon108"
         fill="#0000ff"
         points="110.169,6.156 110.999,7.816 109.341,16.942 107.681,18.599 106.022,16.942 107.681,8.644  "
         gorn="0.3.54"
         style="fill:#0000ff" />
         
         <polygon
         id="polygon110"
         fill="#0000ff"
         points="107.681,19.428 108.511,21.086 106.853,30.213 105.192,31.872 103.534,30.213 105.192,21.92  "
         gorn="0.3.55"
         style="fill:#0000ff" />
         
         <polygon
         id="polygon112"
         fill="#0000ff"
         points="103.534,33.53 91.091,33.53 90.261,32.698 91.921,30.213 102.704,30.213 104.362,32.7  "
         gorn="0.3.56"
         style="fill:#0000ff" />
         
         <polygon
         id="polygon114"
         fill="#0000ff"
         points="89.431,31.872 88.603,30.213 90.261,21.086 91.921,19.428 93.579,21.086 91.921,29.381  "
         gorn="0.3.57"
         style="fill:#0000ff" />
         
         <polygon
         id="polygon116"
         fill="#0000ff"
         points="91.921,18.599 91.091,16.942 92.751,7.816 94.409,6.156 96.069,7.816 94.409,16.112  "
         gorn="0.3.58"
         style="fill:#0000ff" />
         
         <polygon
         id="polygon118"
         fill="#646464"
         points="92.751,18.599 94.409,16.942 105.192,16.942 106.853,18.599 105.192,20.258 94.409,20.258  "
         gorn="0.3.59" />
         
         <circle
         cy="31.868"
         id="circle120"
         fill="#646464"
         gorn="0.3.60"
         style="fill:#0000ff"
         cx="108.985"
         r="1.748" />
         
         <polygon
         id="polygon122"
         fill="#C7C7C7"
         points="113.368,36.565 -0.112,36.565 0.888,37.872 114.368,37.872  "
         gorn="0.3.61" />
         
         <polygon
         id="polygon124"
         fill="#AAAAAA"
         points="113.253,36.565 114.368,37.872 114.368,2.008 113.253,1.008  "
         gorn="0.3.62" />
         
         </g></g></svg>
