<?xml version="1.0" encoding="UTF-8"?>
<!-- Generator: Adobe Illustrator 16.0.0, SVG Export Plug-In . SVG Version: 6.00 Build 0)  -->
<svg width="28.8px" height="43.2px" enable-background="new 0 0 28.8 43.2" version="1.1" viewBox="0 0 28.8 43.2" xml:space="preserve" xmlns="http://www.w3.org/2000/svg" xmlns:cc="http://creativecommons.org/ns#" xmlns:dc="http://purl.org/dc/elements/1.1/" xmlns:rdf="http://www.w3.org/1999/02/22-rdf-syntax-ns#"><metadata><rdf:RDF><cc:Work rdf:about=""><dc:format>image/svg+xml</dc:format><dc:type rdf:resource="http://purl.org/dc/dcmitype/StillImage"/><dc:title/></cc:Work></rdf:RDF></metadata><g id="schematic"><polyline points="4.125 17.557 21.6 27.474 21.6 37.743" fill="none" stroke="#000" stroke-linecap="round" stroke-width=".7"/><polygon points="4.23 19.505 -0.022 15.188 5.819 16.8"/><g fill="none"><polyline points="14.401 36 14.401 34.559 11.521 32.4 18.001 28.799 11.521 25.2 18.001 21.6 11.521 18 18.001 14.4 11.521 10.8 14.401 8.64 14.401 7.2" stroke="#000" stroke-linecap="round" stroke-width=".7"/><path id="connector1terminal" d="m21.968 43.2v-1.054l-0.672 0.017v1.037h0.672z"/><line id="connector1pin" x1="21.621" x2="21.621" y1="42.85" y2="36" stroke="#787878" stroke-linecap="round" stroke-width=".7"/><line id="connector0pin" x1="14.4" x2="14.4" y1="42.85" y2="36" stroke="#787878" stroke-linecap="round" stroke-width=".7"/><path id="connector0terminal" d="m14.047 42.176h0.703l-0.031 1.024h-0.656l-0.016-1.024z"/></g><g transform="translate(11.521 40)" fill="#787878" aria-label="1"><path d="m1.0586 0h-0.78711v-0.14844h0.30273v-0.97461h-0.30273v-0.13281q0.061523 0 0.13184-0.00977 0.070312-0.010742 0.10645-0.030273 0.044922-0.024414 0.070312-0.061524 0.026367-0.038086 0.030273-0.10156h0.15137v1.3105h0.29687z" fill="#787878"/></g><g transform="translate(19.124 40)" fill="#787878" aria-label="2"><path d="m1.1416 0h-0.98438v-0.2041q0.10254-0.087891 0.20508-0.17578 0.10352-0.087891 0.19238-0.1748 0.1875-0.18164 0.25684-0.28809 0.069336-0.10742 0.069336-0.23145 0-0.11328-0.075195-0.17676-0.074219-0.064453-0.20801-0.064453-0.088867 0-0.19238 0.03125-0.10352 0.03125-0.20215 0.095703h-0.009766v-0.20508q0.069336-0.03418 0.18457-0.0625 0.11621-0.02832 0.22461-0.02832 0.22363 0 0.35059 0.1084 0.12695 0.10742 0.12695 0.29199 0 0.083008-0.021484 0.15527-0.020508 0.071289-0.061523 0.13574-0.038086 0.060547-0.089844 0.11914-0.050781 0.058594-0.12402 0.12988-0.10449 0.10254-0.21582 0.19922-0.11133 0.095703-0.20801 0.17773h0.78223z" fill="#787878"/></g><line id="connector2pin" x1="14.4" x2="14.4" y1=".35" y2="7.55" fill="none" stroke="#787878" stroke-linecap="round" stroke-width=".7"/><path id="connector2terminal" d="m14.15-0.25v0.5l0.497-0.01 3e-3 -0.49h-0.5z" fill="none"/><g transform="translate(11.521,4.9751)" fill="#787878" aria-label="3"><path d="m1.0137-0.7002q0.046875 0.041992 0.077148 0.10547 0.030273 0.063477 0.030273 0.16406 0 0.099609-0.036133 0.18262-0.036133 0.083008-0.10156 0.14453-0.073242 0.068359-0.17285 0.10156-0.098633 0.032227-0.2168 0.032227-0.12109 0-0.23828-0.029297-0.11719-0.02832-0.19238-0.0625v-0.2041h0.014648q0.083008 0.054688 0.19531 0.09082 0.1123 0.036133 0.2168 0.036133 0.061523 0 0.13086-0.020508 0.069336-0.020508 0.1123-0.060547 0.044922-0.042969 0.066406-0.094727 0.022461-0.051758 0.022461-0.13086 0-0.078125-0.025391-0.12891-0.024414-0.051758-0.068359-0.081055-0.043945-0.030273-0.10645-0.041016-0.0625-0.011719-0.13477-0.011719h-0.087891v-0.16211h0.068359q0.14844 0 0.23633-0.061523 0.088867-0.0625 0.088867-0.18164 0-0.052734-0.022461-0.091797-0.022461-0.040039-0.0625-0.06543-0.041992-0.025391-0.089844-0.035156-0.047852-0.00977-0.1084-0.00977-0.092773 0-0.19727 0.033203-0.10449 0.033203-0.19727 0.09375h-0.009766v-0.2041q0.069336-0.03418 0.18457-0.0625 0.11621-0.029297 0.22461-0.029297 0.10645 0 0.1875 0.019531 0.081055 0.019531 0.14648 0.0625 0.070312 0.046875 0.10645 0.11328 0.036133 0.066406 0.036133 0.15527 0 0.12109-0.085937 0.21191-0.084961 0.089844-0.20117 0.11328v0.013672q0.046875 0.007813 0.10742 0.033203 0.060547 0.024414 0.10254 0.061523z" fill="#787878"/></g></g></svg>
