<?xml version="1.0" encoding="UTF-8"?>
<svg width=".37in" height=".46534in" version="1.1" viewBox="0 0 37 46.534" xml:space="preserve" xmlns="http://www.w3.org/2000/svg" xmlns:cc="http://creativecommons.org/ns#" xmlns:dc="http://purl.org/dc/elements/1.1/" xmlns:rdf="http://www.w3.org/1999/02/22-rdf-syntax-ns#"><metadata><rdf:RDF><cc:Work rdf:about=""><dc:format>image/svg+xml</dc:format><dc:type rdf:resource="http://purl.org/dc/dcmitype/StillImage"/><dc:title/></cc:Work></rdf:RDF></metadata><g id="breadboard" transform="translate(1.2187 9.7763)"><g fill="#8c8c8c"><rect id="connector0terminal" x="6.033" y="35.105" width="2.52" height="1.647"/><rect id="connector1terminal" x="16.032" y="35.105" width="2.521" height="1.647"/><rect id="connector2terminal" x="26.03" y="35.105" width="2.521" height="1.647"/><rect id="connector0pin" x="6.033" y="29.32" width="2.52" height="7.438"/><rect id="connector1pin" x="16.032" y="29.32" width="2.521" height="7.438"/><rect id="connector2pin" x="26.03" y="29.32" width="2.521" height="7.438"/><rect x="6.021" y="15.905" width="2.52" height="20.785"/><rect x="16.02" y="15.905" width="2.521" height="20.785"/><rect x="26.018" y="15.905" width="2.521" height="20.785"/></g><g><rect x="-1.218" y="-4.0268" width="36.998" height="27.145" fill="#04f" stroke-width="1.2122"/><rect x="-1.218" y="-4.0268" width="36.998" height="1.8216" fill="#09f" stroke-width=".62597"/><path d="m0.32349-9.7763-1.5422 5.7495h37l-1.5422-5.7495z" fill="#04f"/></g><ellipse cx="28.642" cy="-7.0652" rx="4.9701" ry="1.7922" fill="#f60" fill-opacity=".95673" style="paint-order:normal"/><path d="m30.577-8.7152-2.0264 3.4403c0.0305 7.797e-4 0.06102 0.00146 0.09155 0.00203 2.7454 3.51e-5 4.9709-0.80252 4.9703-1.7924-7.79e-4 -0.7199-1.1963-1.3698-3.0355-1.65zm-3.9347 3.2898 2.0182-3.4322h-0.01831c-2.7454-3.51e-5 -4.9709 0.80252-4.9703 1.7924 8.31e-4 0.7106 1.1661 1.3539 2.9704 1.6398z" fill="#ffe680" fill-opacity=".95673" style="paint-order:normal"/><g transform="scale(.94658 1.0564)" fill="#09f" stroke-width=".98602px" style="font-feature-settings:normal;font-variant-caps:normal;font-variant-ligatures:normal;font-variant-numeric:normal" aria-label="XXXX"><path d="m7.5323 7.215-1.3352 2.8964q-0.051355 0.08217-0.13352 0.08217h-1.2223q-0.11298 0-0.17461-0.08217-0.051355-0.09244 0.010271-0.20542l1.9207-3.6051-1.8693-3.5024q-0.051355-0.10271 0-0.19515 0.051355-0.092439 0.16434-0.092439h1.2325q0.082168 0 0.13352 0.092439l1.3147 2.7834h0.020542l1.3147-2.7834q0.051355-0.092439 0.14379-0.092439h1.1812q0.11298 0 0.16434 0.092439 0.06163 0.092439 0.01027 0.19515l-1.8796 3.5024 1.931 3.6051q0.05136 0.11298 0 0.20542-0.05136 0.08217-0.17461 0.08217h-1.2633q-0.082168 0-0.13352-0.08217l-1.3352-2.8964z"/><path d="m14.66 7.215-1.3352 2.8964q-0.05136 0.08217-0.13352 0.08217h-1.2223q-0.11298 0-0.17461-0.08217-0.05136-0.09244 0.01027-0.20542l1.9207-3.6051-1.8693-3.5024q-0.05136-0.10271 0-0.19515 0.05135-0.092439 0.16434-0.092439h1.2325q0.08217 0 0.13352 0.092439l1.3147 2.7834h0.02054l1.3147-2.7834q0.05136-0.092439 0.14379-0.092439h1.1812q0.11298 0 0.16434 0.092439 0.06163 0.092439 0.01027 0.19515l-1.8796 3.5024 1.931 3.6051q0.05136 0.11298 0 0.20542-0.05135 0.08217-0.17461 0.08217h-1.2633q-0.08217 0-0.13352-0.08217l-1.3352-2.8964z"/><path d="m21.788 7.215-1.3352 2.8964q-0.05135 0.08217-0.13352 0.08217h-1.2223q-0.11298 0-0.17461-0.08217-0.05136-0.09244 0.01027-0.20542l1.9207-3.6051-1.8693-3.5024q-0.05135-0.10271 0-0.19515 0.05136-0.092439 0.16434-0.092439h1.2325q0.08217 0 0.13352 0.092439l1.3147 2.7834h0.02054l1.3147-2.7834q0.05136-0.092439 0.14379-0.092439h1.1812q0.11298 0 0.16434 0.092439 0.06163 0.092439 0.01027 0.19515l-1.8796 3.5024 1.931 3.6051q0.05135 0.11298 0 0.20542-0.05136 0.08217-0.17461 0.08217h-1.2633q-0.08217 0-0.13352-0.08217l-1.3352-2.8964z"/><path d="m28.917 7.215-1.3352 2.8964q-0.05136 0.08217-0.13352 0.08217h-1.2223q-0.11298 0-0.17461-0.08217-0.05136-0.09244 0.01027-0.20542l1.9207-3.6051-1.8693-3.5024q-0.05136-0.10271 0-0.19515 0.05135-0.092439 0.16434-0.092439h1.2325q0.08217 0 0.13352 0.092439l1.3147 2.7834h0.02054l1.3147-2.7834q0.05135-0.092439 0.14379-0.092439h1.1812q0.11298 0 0.16434 0.092439 0.06163 0.092439 0.01027 0.19515l-1.8796 3.5024 1.931 3.6051q0.05136 0.11298 0 0.20542-0.05136 0.08217-0.17461 0.08217h-1.2633q-0.08217 0-0.13352-0.08217l-1.3352-2.8964z"/></g></g></svg>
