<?xml version="1.0" encoding="UTF-8"?>
<!-- Generator: Adobe Illustrator 13.0.0, SVG Export Plug-In . SVG Version: 6.00 Build 14948)  -->
<svg width="32" height="32" version="1.0" xmlns="http://www.w3.org/2000/svg" xmlns:cc="http://creativecommons.org/ns#" xmlns:dc="http://purl.org/dc/elements/1.1/" xmlns:rdf="http://www.w3.org/1999/02/22-rdf-syntax-ns#">
 <metadata>
  <rdf:RDF>
   <cc:Work rdf:about="">
    <dc:format>image/svg+xml</dc:format>
    <dc:type rdf:resource="http://purl.org/dc/dcmitype/StillImage"/>
    <dc:title/>
   </cc:Work>
  </rdf:RDF>
 </metadata>
 <g transform="translate(-1.0169 .12361)">
  <g fill="#8c8c8c" stroke-width=".70713">
   <rect x="9.0546" y="14.608" width="1.782" height="14.698"/>
   <rect x="16.125" y="14.608" width="1.7827" height="14.698"/>
   <rect x="23.195" y="14.608" width="1.7827" height="14.698"/>
  </g>
  <g>
   <rect x="3.9356" y="6.5131" width="26.163" height="19.195" fill="#04f" stroke-width=".85721"/>
   <rect x="3.9356" y="6.5131" width="26.163" height="1.2881" fill="#09f" stroke-width=".44264"/>
   <path d="m5.0257 2.4474-1.0905 4.0657h26.164l-1.0905-4.0657z" fill="#04f" stroke-width=".70713"/>
  </g>
  <ellipse cx="25.051" cy="4.3646" rx="3.5145" ry="1.2673" fill="#f60" fill-opacity=".95673" style="paint-order:normal"/>
  <path d="m26.419 3.1978-1.4329 2.4328c0.02157 5.517e-4 0.04315 0.00103 0.06474 0.00147 1.9414 2.5e-5 3.5151-0.56749 3.5147-1.2675-5.51e-4 -0.50907-0.84595-0.9686-2.1465-1.1668zm-2.7824 2.3263 1.4272-2.427h-0.01295c-1.9414-2.43e-5 -3.5151 0.56749-3.5147 1.2675 5.87e-4 0.50249 0.82459 0.95739 2.1005 1.1596z" fill="#ffe680" fill-opacity=".95673" style="paint-order:normal"/>
  <g transform="matrix(.47959 0 0 .53525 8.2613 9.8924)" fill="#09f" stroke-width=".98602px" style="font-feature-settings:normal;font-variant-caps:normal;font-variant-ligatures:normal;font-variant-numeric:normal" aria-label="XXXX">
   <path d="m7.5323 7.215-1.3352 2.8964q-0.051355 0.08217-0.13352 0.08217h-1.2223q-0.11298 0-0.17461-0.08217-0.051355-0.09244 0.010271-0.20542l1.9207-3.6051-1.8693-3.5024q-0.051355-0.10271 0-0.19515 0.051355-0.092439 0.16434-0.092439h1.2325q0.082168 0 0.13352 0.092439l1.3147 2.7834h0.020542l1.3147-2.7834q0.051355-0.092439 0.14379-0.092439h1.1812q0.11298 0 0.16434 0.092439 0.06163 0.092439 0.01027 0.19515l-1.8796 3.5024 1.931 3.6051q0.05136 0.11298 0 0.20542-0.05136 0.08217-0.17461 0.08217h-1.2633q-0.082168 0-0.13352-0.08217l-1.3352-2.8964z"/>
   <path d="m14.66 7.215-1.3352 2.8964q-0.05136 0.08217-0.13352 0.08217h-1.2223q-0.11298 0-0.17461-0.08217-0.05136-0.09244 0.01027-0.20542l1.9207-3.6051-1.8693-3.5024q-0.05136-0.10271 0-0.19515 0.05135-0.092439 0.16434-0.092439h1.2325q0.08217 0 0.13352 0.092439l1.3147 2.7834h0.02054l1.3147-2.7834q0.05136-0.092439 0.14379-0.092439h1.1812q0.11298 0 0.16434 0.092439 0.06163 0.092439 0.01027 0.19515l-1.8796 3.5024 1.931 3.6051q0.05136 0.11298 0 0.20542-0.05135 0.08217-0.17461 0.08217h-1.2633q-0.08217 0-0.13352-0.08217l-1.3352-2.8964z"/>
   <path d="m21.788 7.215-1.3352 2.8964q-0.05135 0.08217-0.13352 0.08217h-1.2223q-0.11298 0-0.17461-0.08217-0.05136-0.09244 0.01027-0.20542l1.9207-3.6051-1.8693-3.5024q-0.05135-0.10271 0-0.19515 0.05136-0.092439 0.16434-0.092439h1.2325q0.08217 0 0.13352 0.092439l1.3147 2.7834h0.02054l1.3147-2.7834q0.05136-0.092439 0.14379-0.092439h1.1812q0.11298 0 0.16434 0.092439 0.06163 0.092439 0.01027 0.19515l-1.8796 3.5024 1.931 3.6051q0.05135 0.11298 0 0.20542-0.05136 0.08217-0.17461 0.08217h-1.2633q-0.08217 0-0.13352-0.08217l-1.3352-2.8964z"/>
   <path d="m28.917 7.215-1.3352 2.8964q-0.05136 0.08217-0.13352 0.08217h-1.2223q-0.11298 0-0.17461-0.08217-0.05136-0.09244 0.01027-0.20542l1.9207-3.6051-1.8693-3.5024q-0.05136-0.10271 0-0.19515 0.05135-0.092439 0.16434-0.092439h1.2325q0.08217 0 0.13352 0.092439l1.3147 2.7834h0.02054l1.3147-2.7834q0.05135-0.092439 0.14379-0.092439h1.1812q0.11298 0 0.16434 0.092439 0.06163 0.092439 0.01027 0.19515l-1.8796 3.5024 1.931 3.6051q0.05136 0.11298 0 0.20542-0.05136 0.08217-0.17461 0.08217h-1.2633q-0.08217 0-0.13352-0.08217l-1.3352-2.8964z"/>
  </g>
 </g>
</svg>
