<?xml version="1.0" encoding="UTF-8" standalone="no"?>
<!-- Created with Fritzing (http://www.fritzing.org/) -->

<svg
   xmlns:dc="http://purl.org/dc/elements/1.1/"
   xmlns:cc="http://creativecommons.org/ns#"
   xmlns:rdf="http://www.w3.org/1999/02/22-rdf-syntax-ns#"
   xmlns:svg="http://www.w3.org/2000/svg"
   xmlns="http://www.w3.org/2000/svg"
   xmlns:sodipodi="http://sodipodi.sourceforge.net/DTD/sodipodi-0.dtd"
   xmlns:inkscape="http://www.inkscape.org/namespaces/inkscape"
   version="1.2"
   x="0in"
   y="0in"
   width="1.5in"
   height="0.5in"
   viewBox="0 0 38.1 12.7"
   id="svg56"
   sodipodi:docname="SNx5176B_sch.svg"
   inkscape:version="0.92.1 r15371">
  <metadata
     id="metadata62">
    <rdf:RDF>
      <cc:Work
         rdf:about="">
        <dc:format>image/svg+xml</dc:format>
        <dc:type
           rdf:resource="http://purl.org/dc/dcmitype/StillImage" />
      </cc:Work>
    </rdf:RDF>
  </metadata>
  <defs
     id="defs60" />
  <sodipodi:namedview
     pagecolor="#ffffff"
     bordercolor="#666666"
     borderopacity="1"
     objecttolerance="10"
     gridtolerance="10"
     guidetolerance="10"
     inkscape:pageopacity="0"
     inkscape:pageshadow="2"
     inkscape:window-width="1366"
     inkscape:window-height="705"
     id="namedview58"
     showgrid="false"
     inkscape:zoom="3.5"
     inkscape:cx="124.58359"
     inkscape:cy="24"
     inkscape:window-x="-8"
     inkscape:window-y="-8"
     inkscape:window-maximized="1"
     inkscape:current-layer="svg56" />
  <g
     id="schematic">
    <path
       style="fill:#ffffff;stroke:#000000;stroke-width:0.3175;stroke-linecap:round"
       d="m 5.23875,0.15875 h 27.622499 v 12.3825 H 5.23875 Z"
       id="rect2" />
    <path
       style="fill:none;stroke:#787878;stroke-width:0.246944;stroke-linecap:round"
       d="m 32.8965,2.54 h 5.080001"
       id="connector7pin" />
    <g
       aria-label="8"
       style="font-size:0.881944px;font-family:'Droid Sans';text-anchor:middle;fill:#8c8c8c;stroke:none;stroke-width:0"
       id="text5">
      <path
         d="m 35.663877,1.9908657 q 0,0.083113 -0.06503,0.1382344 -0.0646,0.055121 -0.162781,0.055121 -0.104214,0 -0.166226,-0.05383 -0.06158,-0.053829 -0.06158,-0.1378037 0,-0.053399 0.03101,-0.096463 0.03101,-0.043494 0.08742,-0.068902 V 1.82464 q -0.05168,-0.027561 -0.07665,-0.060289 -0.02455,-0.032728 -0.02455,-0.081821 0,-0.072347 0.05943,-0.1205783 0.05943,-0.048231 0.151154,-0.048231 0.09603,0 0.153307,0.046078 0.05727,0.046078 0.05727,0.1171332 0,0.043494 -0.02713,0.085697 -0.02713,0.041772 -0.07967,0.065457 v 0.00258 q 0.06029,0.025838 0.09216,0.063734 0.03187,0.037896 0.03187,0.096463 z M 35.561816,1.6777928 q 0,-0.046078 -0.03574,-0.073208 -0.03531,-0.027561 -0.09043,-0.027561 -0.05426,0 -0.08914,0.025838 -0.03445,0.025838 -0.03445,0.069763 0,0.031006 0.01723,0.05383 0.01766,0.022393 0.05297,0.040049 0.01593,0.00775 0.04565,0.02024 0.03014,0.012488 0.05857,0.020671 0.04263,-0.028422 0.059,-0.058997 0.01636,-0.030575 0.01636,-0.070625 z m 0.01335,0.321255 q 0,-0.039619 -0.01766,-0.063304 -0.01723,-0.024116 -0.06804,-0.048231 -0.02024,-0.00947 -0.04436,-0.017656 -0.02412,-0.00818 -0.06417,-0.022824 -0.03876,0.021101 -0.06244,0.057275 -0.02325,0.036173 -0.02325,0.081821 0,0.058136 0.04005,0.096032 0.04005,0.037896 0.10163,0.037896 0.06287,0 0.100339,-0.032298 0.0379,-0.032298 0.0379,-0.088711 z"
         style="font-size:0.881944px;font-family:'Droid Sans';text-anchor:middle;fill:#8c8c8c;stroke:none;stroke-width:0"
         id="path4638" />
    </g>
    <g
       aria-label="Vcc"
       style="font-size:1.23471999px;font-family:'Droid Sans';text-anchor:end;fill:#8c8c8c;stroke:none;stroke-width:0"
       id="text7">
      <path
         d="M 31.09915,1.889236 30.772383,2.7869401 H 30.61322 L 30.286453,1.889236 h 0.127813 l 0.28155,0.7897867 0.28155,-0.7897867 z"
         style="font-size:1.23471999px;font-family:'Droid Sans';text-anchor:end;fill:#8c8c8c;stroke:none;stroke-width:0"
         id="path4641" />
      <path
         d="m 31.724347,2.7447378 q -0.05667,0.02713 -0.107917,0.042202 -0.05064,0.015072 -0.107917,0.015072 -0.07295,0 -0.133842,-0.021101 -0.06089,-0.021704 -0.1043,-0.065112 -0.04401,-0.043408 -0.06813,-0.1097261 -0.02412,-0.066318 -0.02412,-0.1549429 0,-0.165192 0.09043,-0.2592429 0.09104,-0.094051 0.239951,-0.094051 0.05788,0 0.113343,0.016278 0.05607,0.016278 0.102491,0.039791 v 0.1260042 h -0.006 q -0.05185,-0.040394 -0.107315,-0.062098 -0.05486,-0.021704 -0.107315,-0.021704 -0.09646,0 -0.152531,0.065112 -0.05547,0.064509 -0.05547,0.1899105 0,0.1217839 0.05426,0.187499 0.05486,0.065112 0.153737,0.065112 0.03436,0 0.06994,-0.00904 0.03557,-0.00904 0.06391,-0.023513 0.02472,-0.012661 0.04642,-0.026527 0.0217,-0.014469 0.03437,-0.024719 h 0.006 z"
         style="font-size:1.23471999px;font-family:'Droid Sans';text-anchor:end;fill:#8c8c8c;stroke:none;stroke-width:0"
         id="path4643" />
      <path
         d="m 32.368235,2.7447378 q -0.05667,0.02713 -0.107918,0.042202 -0.05064,0.015072 -0.107917,0.015072 -0.07295,0 -0.133842,-0.021101 -0.06089,-0.021704 -0.1043,-0.065112 -0.04401,-0.043408 -0.06813,-0.1097261 -0.02411,-0.066318 -0.02411,-0.1549429 0,-0.165192 0.09043,-0.2592429 0.09104,-0.094051 0.239951,-0.094051 0.05788,0 0.113343,0.016278 0.05607,0.016278 0.102492,0.039791 v 0.1260042 h -0.006 q -0.05185,-0.040394 -0.107315,-0.062098 -0.05486,-0.021704 -0.107314,-0.021704 -0.09646,0 -0.152532,0.065112 -0.05547,0.064509 -0.05547,0.1899105 0,0.1217839 0.05426,0.187499 0.05486,0.065112 0.153737,0.065112 0.03436,0 0.06994,-0.00904 0.03557,-0.00904 0.06391,-0.023513 0.02472,-0.012661 0.04642,-0.026527 0.0217,-0.014469 0.03437,-0.024719 h 0.006 z"
         style="font-size:1.23471999px;font-family:'Droid Sans';text-anchor:end;fill:#8c8c8c;stroke:none;stroke-width:0"
         id="path4645" />
    </g>
    <path
       style="fill:none;stroke:none;stroke-width:0"
       d="m 37.976501,2.4165299 h 0.246944 v 0.246944 h -0.246944 z"
       id="connector7terminal" />
    <path
       style="fill:none;stroke:#787878;stroke-width:0.246944;stroke-linecap:round"
       d="m 32.8965,5.0799999 h 5.080001"
       id="connector6pin" />
    <g
       aria-label="7"
       style="font-size:0.881944px;font-family:'Droid Sans';text-anchor:middle;fill:#8c8c8c;stroke:none;stroke-width:0"
       id="text11">
      <path
         d="m 35.660862,4.1643939 -0.290249,0.545186 h -0.09216 l 0.308766,-0.5658566 h -0.36518 v -0.075361 h 0.438819 z"
         style="font-size:0.881944px;font-family:'Droid Sans';text-anchor:middle;fill:#8c8c8c;stroke:none;stroke-width:0"
         id="path4650" />
    </g>
    <g
       aria-label="B"
       style="font-size:1.23471999px;font-family:'Droid Sans';text-anchor:end;fill:#8c8c8c;stroke:none;stroke-width:0"
       id="text13">
      <path
         d="m 32.353765,5.0508162 q 0,0.066921 -0.02532,0.1181665 -0.02532,0.051246 -0.06813,0.084405 -0.05064,0.039791 -0.111535,0.056672 -0.06029,0.016881 -0.153737,0.016881 H 31.676719 V 4.4292359 h 0.265875 q 0.09827,0 0.147105,0.00723 0.04883,0.00723 0.09345,0.030145 0.04944,0.025924 0.07174,0.066921 0.02231,0.040394 0.02231,0.097065 0,0.063906 -0.03256,0.1091232 -0.03256,0.044614 -0.08682,0.071744 v 0.00482 q 0.09104,0.01869 0.143488,0.080185 0.05245,0.060892 0.05245,0.15434 z M 32.153003,4.6462765 q 0,-0.032556 -0.01085,-0.054863 -0.01085,-0.022307 -0.03497,-0.036173 -0.02834,-0.016278 -0.06873,-0.019895 -0.04039,-0.00422 -0.100079,-0.00422 h -0.142283 v 0.259243 h 0.15434 q 0.05607,0 0.08923,-0.00543 0.03316,-0.00603 0.0615,-0.024116 0.02834,-0.018087 0.03979,-0.046423 0.01206,-0.028939 0.01206,-0.068127 z m 0.07657,0.4093628 q 0,-0.05426 -0.01628,-0.086213 -0.01628,-0.031953 -0.05908,-0.05426 -0.02894,-0.015072 -0.07054,-0.019292 -0.041,-0.00482 -0.10008,-0.00482 h -0.187499 v 0.3340014 h 0.157958 q 0.07837,0 0.128415,-0.00784 0.05004,-0.00844 0.08199,-0.030145 0.03376,-0.023513 0.04944,-0.053657 0.01568,-0.030145 0.01568,-0.077773 z"
         style="font-size:1.23471999px;font-family:'Droid Sans';text-anchor:end;fill:#8c8c8c;stroke:none;stroke-width:0"
         id="path4653" />
    </g>
    <path
       style="fill:none;stroke:none;stroke-width:0"
       d="m 37.976501,4.9565301 h 0.246944 v 0.246944 h -0.246944 z"
       id="connector6terminal" />
    <path
       style="fill:none;stroke:#787878;stroke-width:0.246944;stroke-linecap:round"
       d="m 32.8965,7.6199999 h 5.080001"
       id="connector5pin" />
    <g
       aria-label="6"
       style="font-size:0.881944px;font-family:'Droid Sans';text-anchor:middle;fill:#8c8c8c;stroke:none;stroke-width:0"
       id="text17">
      <path
         d="m 35.668614,7.0415824 q 0,0.097754 -0.0646,0.1597662 -0.06417,0.061581 -0.157613,0.061581 -0.04737,0 -0.08613,-0.014642 -0.03876,-0.014642 -0.06847,-0.043494 -0.03703,-0.035743 -0.05727,-0.09474 -0.01981,-0.058997 -0.01981,-0.1421101 0,-0.085266 0.01809,-0.1511535 0.01852,-0.065887 0.05857,-0.1171332 0.0379,-0.048662 0.09775,-0.075792 0.05986,-0.027561 0.139526,-0.027561 0.02541,0 0.04263,0.00215 0.01723,0.00215 0.03488,0.00775 v 0.082252 h -0.0043 q -0.01206,-0.00646 -0.0366,-0.012058 -0.02412,-0.00603 -0.04952,-0.00603 -0.09259,0 -0.147709,0.058136 -0.05512,0.057705 -0.06417,0.1563211 0.03617,-0.021962 0.07106,-0.033159 0.03531,-0.011627 0.08139,-0.011627 0.04091,0 0.07192,0.00775 0.03144,0.00732 0.06417,0.030145 0.0379,0.026269 0.05684,0.066318 0.01938,0.040049 0.01938,0.097324 z m -0.08742,0.00345 q 0,-0.040049 -0.01206,-0.066318 -0.01163,-0.026269 -0.03876,-0.045647 -0.01981,-0.01378 -0.04393,-0.018087 -0.02412,-0.00431 -0.05038,-0.00431 -0.0366,0 -0.06804,0.00861 -0.03144,0.00861 -0.06459,0.026699 -8.61e-4,0.00947 -0.0013,0.018517 -4.31e-4,0.00861 -4.31e-4,0.021962 0,0.068041 0.01378,0.1076592 0.01421,0.039188 0.03876,0.062012 0.01981,0.018948 0.04263,0.027991 0.02325,0.00861 0.05038,0.00861 0.06244,0 0.09819,-0.037896 0.03574,-0.038327 0.03574,-0.1098123 z"
         style="font-size:0.881944px;font-family:'Droid Sans';text-anchor:middle;fill:#8c8c8c;stroke:none;stroke-width:0"
         id="path4658" />
    </g>
    <g
       aria-label="A"
       style="font-size:1.23471999px;font-family:'Droid Sans';text-anchor:end;fill:#8c8c8c;stroke:none;stroke-width:0"
       id="text19">
      <path
         d="m 32.386924,7.86694 h -0.12721 L 32.171692,7.6167404 H 31.783431 L 31.695409,7.86694 h -0.121181 l 0.326766,-0.8977041 h 0.159163 z M 32.134916,7.514249 31.977561,7.073536 31.819604,7.514249 Z"
         style="font-size:1.23471999px;font-family:'Droid Sans';text-anchor:end;fill:#8c8c8c;stroke:none;stroke-width:0"
         id="path4661" />
    </g>
    <path
       style="fill:none;stroke:none;stroke-width:0"
       d="m 37.976501,7.4965301 h 0.246944 v 0.246944 h -0.246944 z"
       id="connector5terminal" />
    <path
       style="fill:none;stroke:#787878;stroke-width:0.246944;stroke-linecap:round"
       d="m 32.8965,10.16 h 5.080001"
       id="connector4pin" />
    <g
       aria-label="5"
       style="font-size:0.881944px;font-family:'Droid Sans';text-anchor:middle;fill:#8c8c8c;stroke:none;stroke-width:0"
       id="text23">
      <path
         d="m 35.653972,9.5858892 q 0,0.044786 -0.01636,0.085697 -0.01636,0.04091 -0.04479,0.068902 -0.03101,0.030145 -0.07407,0.046509 -0.04263,0.015934 -0.09905,0.015934 -0.05254,0 -0.1012,-0.011197 -0.04866,-0.010766 -0.08225,-0.026269 v -0.090864 h 0.006 q 0.03531,0.022393 0.08268,0.038327 0.04737,0.015503 0.09302,0.015503 0.03057,0 0.059,-0.00861 0.02885,-0.00861 0.05125,-0.030145 0.01895,-0.018517 0.02842,-0.044356 0.0099,-0.025838 0.0099,-0.059859 0,-0.033159 -0.01163,-0.055983 -0.0112,-0.022824 -0.03144,-0.036604 -0.02239,-0.016364 -0.05469,-0.022824 -0.03187,-0.00689 -0.07149,-0.00689 -0.0379,0 -0.07321,0.00517 -0.03488,0.00517 -0.06029,0.010335 V 9.1483623 h 0.385851 v 0.075361 h -0.302738 v 0.1705321 q 0.01852,-0.00172 0.0379,-0.00258 0.01938,-8.613e-4 0.03359,-8.613e-4 0.05211,0 0.0913,0.00904 0.03919,0.00861 0.07192,0.031006 0.03445,0.023685 0.0534,0.06115 0.01895,0.037465 0.01895,0.093879 z"
         style="font-size:0.881944px;font-family:'Droid Sans';text-anchor:middle;fill:#8c8c8c;stroke:none;stroke-width:0"
         id="path4666" />
    </g>
    <g
       aria-label="GND"
       style="font-size:1.23471999px;font-family:'Droid Sans';text-anchor:end;fill:#8c8c8c;stroke:none;stroke-width:0"
       id="text25">
      <path
         d="m 30.438382,10.340582 q -0.07355,0.03376 -0.160972,0.05908 -0.08682,0.02472 -0.168207,0.02472 -0.104903,0 -0.192322,-0.02894 -0.08742,-0.02894 -0.148914,-0.08682 -0.0621,-0.05848 -0.09586,-0.145899 -0.03376,-0.08802 -0.03376,-0.205586 0,-0.2152319 0.125401,-0.3394274 0.126004,-0.1247984 0.345456,-0.1247984 0.07657,0 0.156149,0.01869 0.08019,0.018087 0.172427,0.062098 v 0.1416793 h -0.01085 q -0.01869,-0.014469 -0.05426,-0.037982 -0.03557,-0.023513 -0.06994,-0.039188 -0.0416,-0.01869 -0.09465,-0.030747 -0.05245,-0.012661 -0.119372,-0.012661 -0.150723,0 -0.238745,0.097065 -0.08742,0.096463 -0.08742,0.2616546 0,0.1742353 0.09164,0.2713003 0.09164,0.09646 0.249596,0.09646 0.05788,0 0.115153,-0.01145 0.05788,-0.01145 0.101285,-0.02954 V 10.060238 H 30.079662 V 9.9553353 h 0.35872 z"
         style="font-size:1.23471999px;font-family:'Droid Sans';text-anchor:end;fill:#8c8c8c;stroke:none;stroke-width:0"
         id="path4669" />
      <path
         d="M 31.331866,10.4069 H 31.184157 L 30.758517,9.6038501 V 10.4069 H 30.646982 V 9.5091963 h 0.185087 l 0.388262,0.7331147 V 9.5091963 h 0.111535 z"
         style="font-size:1.23471999px;font-family:'Droid Sans';text-anchor:end;fill:#8c8c8c;stroke:none;stroke-width:0"
         id="path4671" />
      <path
         d="m 32.329047,9.9589527 q 0,0.1223863 -0.05366,0.2218633 -0.05305,0.09948 -0.141679,0.15434 -0.0615,0.03798 -0.137459,0.05486 -0.07536,0.01688 -0.198954,0.01688 H 31.57061 V 9.5091963 h 0.224276 q 0.13143,0 0.2086,0.019293 0.07777,0.01869 0.13143,0.051849 0.09164,0.057275 0.142885,0.1525313 0.05125,0.095257 0.05125,0.226084 z m -0.124799,-0.00181 q 0,-0.1055059 -0.03678,-0.1778527 -0.03678,-0.072347 -0.109726,-0.1139464 -0.05305,-0.030144 -0.112741,-0.041599 -0.05969,-0.012058 -0.142885,-0.012058 h -0.112137 v 0.6927213 h 0.112137 q 0.08621,0 0.15012,-0.01266 0.06451,-0.01266 0.118167,-0.04702 0.06692,-0.04281 0.100079,-0.112741 0.03376,-0.06994 0.03376,-0.174838 z"
         style="font-size:1.23471999px;font-family:'Droid Sans';text-anchor:end;fill:#8c8c8c;stroke:none;stroke-width:0"
         id="path4673" />
    </g>
    <path
       style="fill:none;stroke:none;stroke-width:0"
       d="m 37.976501,10.0365 h 0.246944 v 0.246944 h -0.246944 z"
       id="connector4terminal" />
    <path
       style="fill:none;stroke:#787878;stroke-width:0.246944;stroke-linecap:round"
       d="M 0.123472,2.54 H 5.2034702"
       id="connector0pin" />
    <g
       aria-label="1"
       style="font-size:0.881944px;font-family:'Droid Sans';text-anchor:middle;fill:#8c8c8c;stroke:none;stroke-width:0"
       id="text29">
      <path
         d="M 2.8495051,2.16958 H 2.5024119 V 2.1041232 H 2.6359093 V 1.6743478 H 2.5024119 v -0.058567 q 0.02713,0 0.058136,-0.00431 0.031006,-0.00474 0.046939,-0.01335 0.019809,-0.010766 0.031006,-0.02713 0.011627,-0.016795 0.01335,-0.044786 h 0.066749 v 0.5779145 h 0.1309136 z"
         style="font-size:0.881944px;font-family:'Droid Sans';text-anchor:middle;fill:#8c8c8c;stroke:none;stroke-width:0"
         id="path4678" />
    </g>
    <g
       aria-label="R"
       style="font-size:1.23471999px;font-family:'Droid Sans';text-anchor:start;fill:#8c8c8c;stroke:none;stroke-width:0"
       id="text31">
      <path
         d="M 6.5606994,2.7869401 H 6.4057565 L 6.105517,2.4300289 H 5.9373105 V 2.7869401 H 5.8179382 V 1.889236 h 0.2514054 q 0.08139,0 0.1356503,0.010852 0.05426,0.010249 0.097668,0.037379 0.048834,0.030747 0.075964,0.077773 0.027733,0.046423 0.027733,0.1181666 0,0.097065 -0.048834,0.1627804 -0.048834,0.065112 -0.1344446,0.098271 z M 6.2815611,2.1418471 q 0,-0.038585 -0.013867,-0.068127 -0.013264,-0.030145 -0.044614,-0.050643 -0.025924,-0.017484 -0.061495,-0.024116 -0.035571,-0.00723 -0.083802,-0.00723 H 5.9373105 v 0.3388245 h 0.1205781 q 0.056672,0 0.098874,-0.00965 0.042202,-0.010249 0.071744,-0.037379 0.02713,-0.025321 0.039791,-0.057878 0.013264,-0.033159 0.013264,-0.083802 z"
         style="font-size:1.23471999px;font-family:'Droid Sans';text-anchor:start;fill:#8c8c8c;stroke:none;stroke-width:0"
         id="path4681" />
    </g>
    <path
       style="fill:none;stroke:none;stroke-width:0"
       d="m -0.123472,2.4165299 h 0.246944 v 0.246944 h -0.246944 z"
       id="connector0terminal" />
    <path
       style="fill:none;stroke:#787878;stroke-width:0.246944;stroke-linecap:round"
       d="M 0.123472,5.0799999 H 5.2034702"
       id="connector1pin" />
    <g
       aria-label="2"
       style="font-size:0.881944px;font-family:'Droid Sans';text-anchor:middle;fill:#8c8c8c;stroke:none;stroke-width:0"
       id="text35">
      <path
         d="M 2.8861092,4.7095799 H 2.4520274 v -0.090003 q 0.045217,-0.038757 0.090434,-0.077515 0.045647,-0.038757 0.084835,-0.077084 0.082682,-0.080098 0.1132575,-0.1270378 0.030575,-0.04737 0.030575,-0.1020609 0,-0.049954 -0.033159,-0.077945 -0.032728,-0.028422 -0.091726,-0.028422 -0.039188,0 -0.084836,0.01378 -0.045648,0.01378 -0.089142,0.042202 h -0.00431 v -0.090434 q 0.030575,-0.015072 0.08139,-0.027561 0.051246,-0.012488 0.099046,-0.012488 0.098616,0 0.1545986,0.047801 0.055983,0.04737 0.055983,0.1287604 0,0.036604 -0.00947,0.068471 -0.00904,0.031436 -0.02713,0.059858 -0.016795,0.0267 -0.039619,0.052538 -0.022393,0.025838 -0.054691,0.057275 -0.046078,0.045217 -0.095171,0.08785 -0.049093,0.042202 -0.091726,0.078376 h 0.34494 z"
         style="font-size:0.881944px;font-family:'Droid Sans';text-anchor:middle;fill:#8c8c8c;stroke:none;stroke-width:0"
         id="path4686" />
    </g>
    <g
       aria-label="RE"
       style="font-size:1.23471999px;font-family:'Droid Sans';text-anchor:start;fill:#8c8c8c;stroke:none;stroke-width:0"
       id="text37">
      <path
         d="M 6.5606994,5.3269401 H 6.4057565 L 6.105517,4.9700288 H 5.9373105 V 5.3269401 H 5.8179382 V 4.4292359 h 0.2514054 q 0.08139,0 0.1356503,0.010852 0.05426,0.010249 0.097668,0.037379 0.048834,0.030747 0.075964,0.077773 0.027733,0.046423 0.027733,0.1181665 0,0.097065 -0.048834,0.1627805 -0.048834,0.065112 -0.1344446,0.098271 z M 6.2815611,4.6818471 q 0,-0.038585 -0.013867,-0.068127 -0.013264,-0.030145 -0.044614,-0.050643 -0.025924,-0.017484 -0.061495,-0.024116 -0.035571,-0.00723 -0.083802,-0.00723 H 5.9373105 v 0.3388246 h 0.1205781 q 0.056672,0 0.098874,-0.00965 0.042202,-0.010249 0.071744,-0.037379 0.02713,-0.025321 0.039791,-0.057878 0.013264,-0.033159 0.013264,-0.083802 z"
         style="font-size:1.23471999px;font-family:'Droid Sans';text-anchor:start;fill:#8c8c8c;stroke:none;stroke-width:0"
         id="path4689" />
      <path
         d="M 7.2678901,5.3269401 H 6.6764544 V 4.4292359 H 7.2678901 V 4.5353447 H 6.7958267 V 4.781324 H 7.2678901 V 4.8874328 H 6.7958267 v 0.3333985 h 0.4720634 z"
         style="font-size:1.23471999px;font-family:'Droid Sans';text-anchor:start;fill:#8c8c8c;stroke:none;stroke-width:0"
         id="path4691" />
    </g>
    <path
       style="fill:none;stroke:none;stroke-width:0"
       d="m -0.123472,4.9565301 h 0.246944 v 0.246944 h -0.246944 z"
       id="connector1terminal" />
    <path
       style="fill:none;stroke:#787878;stroke-width:0.246944;stroke-linecap:round"
       d="M 0.123472,7.6199999 H 5.2034702"
       id="connector2pin" />
    <g
       aria-label="3"
       style="font-size:0.881944px;font-family:'Droid Sans';text-anchor:middle;fill:#8c8c8c;stroke:none;stroke-width:0"
       id="text41">
      <path
         d="m 2.8296958,6.9408134 q 0.020671,0.018517 0.03402,0.046509 0.01335,0.027991 0.01335,0.072347 0,0.043925 -0.015934,0.080529 -0.015934,0.036604 -0.044786,0.063734 -0.032298,0.030145 -0.076223,0.044786 -0.043494,0.014211 -0.095601,0.014211 -0.053399,0 -0.1050753,-0.012919 -0.051677,-0.012488 -0.084836,-0.027561 v -0.090003 h 0.00646 q 0.036604,0.024116 0.086127,0.040049 0.049523,0.015934 0.095601,0.015934 0.02713,0 0.057705,-0.00904 0.030575,-0.00904 0.049523,-0.0267 0.019809,-0.018948 0.029283,-0.041772 0.0099,-0.022824 0.0099,-0.057705 0,-0.034451 -0.011197,-0.056844 -0.010766,-0.022824 -0.030145,-0.035743 -0.019379,-0.01335 -0.046939,-0.018087 -0.027561,-0.00517 -0.059428,-0.00517 h -0.038757 v -0.071486 h 0.030145 q 0.065457,0 0.1042141,-0.02713 0.039188,-0.027561 0.039188,-0.080099 0,-0.023254 -0.0099,-0.04048 -0.0099,-0.017656 -0.027561,-0.028853 -0.018517,-0.011197 -0.039619,-0.015503 -0.021101,-0.00431 -0.047801,-0.00431 -0.040911,0 -0.086989,0.014642 -0.046078,0.014642 -0.086989,0.041341 h -0.00431 v -0.090003 q 0.030575,-0.015072 0.08139,-0.027561 0.051246,-0.012919 0.099047,-0.012919 0.046939,0 0.082682,0.00861 0.035743,0.00861 0.064595,0.027561 0.031006,0.02067 0.046939,0.049954 0.015934,0.029283 0.015934,0.068471 0,0.053399 -0.037896,0.093448 -0.037465,0.039619 -0.088711,0.049954 v 0.00603 q 0.020671,0.00345 0.04737,0.014642 0.0267,0.010766 0.045217,0.02713 z"
         style="font-size:0.881944px;font-family:'Droid Sans';text-anchor:middle;fill:#8c8c8c;stroke:none;stroke-width:0"
         id="path4696" />
    </g>
    <g
       aria-label="DE"
       style="font-size:1.23471999px;font-family:'Droid Sans';text-anchor:start;fill:#8c8c8c;stroke:none;stroke-width:0"
       id="text43">
      <path
         d="m 6.5763746,7.4189923 q 0,0.1223868 -0.053657,0.2218637 Q 6.4696629,7.740333 6.381038,7.795196 6.3195432,7.8331781 6.2435789,7.8500591 6.1682176,7.86694 6.044625,7.86694 H 5.8179382 V 6.9692359 h 0.2242753 q 0.1314301,0 0.2086001,0.019292 0.077773,0.01869 0.1314302,0.051849 0.091639,0.057275 0.1428851,0.1525313 0.051246,0.095257 0.051246,0.226084 z m -0.1247984,-0.00181 q 0,-0.1055058 -0.036776,-0.1778527 Q 6.3780235,7.166984 6.3050738,7.1253846 6.2520194,7.09524 6.1923332,7.0837851 6.1326471,7.0717273 6.0494482,7.0717273 H 5.9373105 v 0.6927213 h 0.1121377 q 0.086213,0 0.1501197,-0.012661 0.064509,-0.012661 0.1181666,-0.047026 0.066921,-0.042805 0.1000798,-0.1127405 0.033762,-0.069935 0.033762,-0.1748383 z"
         style="font-size:1.23471999px;font-family:'Droid Sans';text-anchor:start;fill:#8c8c8c;stroke:none;stroke-width:0"
         id="path4699" />
      <path
         d="M 7.361941,7.86694 H 6.7705053 V 6.9692359 H 7.361941 V 7.0753446 H 6.8898777 V 7.321324 H 7.361941 V 7.4274328 H 6.8898777 V 7.7608313 H 7.361941 Z"
         style="font-size:1.23471999px;font-family:'Droid Sans';text-anchor:start;fill:#8c8c8c;stroke:none;stroke-width:0"
         id="path4701" />
    </g>
    <path
       style="fill:none;stroke:none;stroke-width:0"
       d="m -0.123472,7.4965301 h 0.246944 v 0.246944 h -0.246944 z"
       id="connector2terminal" />
    <path
       style="fill:none;stroke:#787878;stroke-width:0.246944;stroke-linecap:round"
       d="M 0.123472,10.16 H 5.2034702"
       id="connector3pin" />
    <g
       aria-label="4"
       style="font-size:0.881944px;font-family:'Droid Sans';text-anchor:middle;fill:#8c8c8c;stroke:none;stroke-width:0"
       id="text47">
      <path
         d="M 2.9007509,9.6091436 H 2.8055801 V 9.7895803 H 2.7228979 V 9.6091436 H 2.4158539 V 9.5100971 L 2.726343,9.1483623 h 0.079237 v 0.3918794 h 0.095171 z M 2.7228979,9.5402417 V 9.2508538 L 2.4744205,9.5402417 Z"
         style="font-size:0.881944px;font-family:'Droid Sans';text-anchor:middle;fill:#8c8c8c;stroke:none;stroke-width:0"
         id="path4706" />
    </g>
    <g
       aria-label="D"
       style="font-size:1.23471999px;font-family:'Droid Sans';text-anchor:start;fill:#8c8c8c;stroke:none;stroke-width:0"
       id="text49">
      <path
         d="m 6.5763746,9.9589527 q 0,0.1223863 -0.053657,0.2218633 -0.053054,0.09948 -0.1416793,0.15434 -0.061495,0.03798 -0.1374591,0.05486 Q 6.1682176,10.4069 6.044625,10.4069 H 5.8179382 V 9.5091963 h 0.2242753 q 0.1314301,0 0.2086001,0.019293 0.077773,0.01869 0.1314302,0.051849 0.091639,0.057275 0.1428851,0.1525313 0.051246,0.095257 0.051246,0.226084 z M 6.4515762,9.957144 q 0,-0.1055059 -0.036776,-0.1778527 Q 6.3780235,9.7069444 6.3050738,9.6653449 6.2520194,9.6352004 6.1923332,9.6237455 6.1326471,9.6116877 6.0494482,9.6116877 H 5.9373105 v 0.6927213 h 0.1121377 q 0.086213,0 0.1501197,-0.01266 0.064509,-0.01266 0.1181666,-0.04702 0.066921,-0.04281 0.1000798,-0.112741 0.033762,-0.06994 0.033762,-0.174838 z"
         style="font-size:1.23471999px;font-family:'Droid Sans';text-anchor:start;fill:#8c8c8c;stroke:none;stroke-width:0"
         id="path4709" />
    </g>
    <path
       style="fill:none;stroke:none;stroke-width:0"
       d="m -0.123472,10.0365 h 0.246944 v 0.246944 h -0.246944 z"
       id="connector3terminal" />
    <g
       aria-label="SNx5176B"
       style="font-size:1.49931002px;font-family:'Droid Sans';text-anchor:middle;fill:#000000;stroke:none;stroke-width:0"
       id="label">
      <path
         d="m 16.207251,4.5983039 q 0,0.063691 -0.03001,0.1259186 -0.02928,0.062227 -0.08273,0.1054203 -0.05857,0.046853 -0.1369,0.073208 -0.0776,0.026355 -0.187414,0.026355 -0.117865,0 -0.212304,-0.021962 -0.09371,-0.021963 -0.191075,-0.065156 v -0.181557 h 0.01025 q 0.08272,0.068816 0.191074,0.1061523 0.108348,0.037336 0.203519,0.037336 0.134704,0 0.209377,-0.050514 0.0754,-0.050514 0.0754,-0.1347036 0,-0.072476 -0.03587,-0.1068844 -0.03514,-0.034408 -0.107616,-0.053442 -0.05491,-0.014642 -0.11933,-0.024159 -0.06369,-0.00952 -0.135436,-0.024159 -0.144953,-0.030748 -0.215233,-0.1046882 -0.06955,-0.074673 -0.06955,-0.1940025 0,-0.1368999 0.11567,-0.224018 0.115669,-0.08785 0.293566,-0.08785 0.114937,0 0.21084,0.021963 0.0959,0.021962 0.169844,0.054174 v 0.1713078 h -0.01025 q -0.06223,-0.05271 -0.163987,-0.087118 -0.101028,-0.03514 -0.20718,-0.03514 -0.116402,0 -0.187414,0.048318 -0.07028,0.048318 -0.07028,0.1244544 0,0.068084 0.03514,0.1068844 0.03514,0.0388 0.123722,0.059299 0.04685,0.010249 0.13324,0.024891 0.08639,0.014642 0.146417,0.030016 0.121526,0.032212 0.183021,0.097367 0.0615,0.065155 0.0615,0.1822891 z"
         style="font-size:1.49931002px;font-family:'Droid Sans';text-anchor:middle;fill:#000000;stroke:none;stroke-width:0"
         id="path4713" />
      <path
         d="m 17.271702,4.90944 h -0.17936 L 16.57549,3.9343029 V 4.90944 H 16.440054 V 3.8193655 h 0.22475 l 0.471463,0.8902153 V 3.8193655 h 0.135435 z"
         style="font-size:1.49931002px;font-family:'Droid Sans';text-anchor:middle;fill:#000000;stroke:none;stroke-width:0"
         id="path4715" />
      <path
         d="M 18.258553,4.90944 H 18.085049 L 17.852978,4.5953756 17.619443,4.90944 H 17.459116 L 17.778305,4.5016687 17.462044,4.0917011 h 0.173505 l 0.230606,0.3089399 0.231339,-0.3089399 h 0.161059 l -0.321385,0.4026468 z"
         style="font-size:1.49931002px;font-family:'Droid Sans';text-anchor:middle;fill:#000000;stroke:none;stroke-width:0"
         id="path4717" />
      <path
         d="m 19.1495,4.5631639 q 0,0.076137 -0.02782,0.1456849 -0.02782,0.069548 -0.07614,0.1171336 -0.05271,0.051246 -0.125918,0.079065 -0.07248,0.027087 -0.16838,0.027087 -0.08931,0 -0.17204,-0.019034 -0.08272,-0.018302 -0.139828,-0.044657 V 4.7139734 h 0.01025 q 0.06003,0.038068 0.140561,0.065155 0.08053,0.026355 0.15813,0.026355 0.05198,0 0.100296,-0.014642 0.04905,-0.014642 0.08712,-0.051246 0.03221,-0.03148 0.04832,-0.075405 0.01684,-0.043925 0.01684,-0.1017598 0,-0.056371 -0.01977,-0.095171 -0.01903,-0.0388 -0.05344,-0.062227 -0.03807,-0.027819 -0.09298,-0.0388 -0.05417,-0.011713 -0.121526,-0.011713 -0.06442,0 -0.124455,0.00879 -0.0593,0.00879 -0.102492,0.01757 V 3.8193655 H 19.14218 V 3.9474804 H 18.627524 V 4.237386 q 0.03148,-0.00293 0.06442,-0.00439 0.03294,-0.00146 0.0571,-0.00146 0.08858,0 0.155202,0.015374 0.06662,0.014642 0.122258,0.05271 0.05857,0.040265 0.09078,0.103956 0.03221,0.063691 0.03221,0.1595946 z"
         style="font-size:1.49931002px;font-family:'Droid Sans';text-anchor:middle;fill:#000000;stroke:none;stroke-width:0"
         id="path4719" />
      <path
         d="M 20.050697,4.90944 H 19.460636 V 4.7981631 h 0.226947 V 4.0675423 h -0.226947 v -0.099564 q 0.04612,0 0.09883,-0.00732 0.05271,-0.00805 0.0798,-0.022695 0.03368,-0.018302 0.05271,-0.046121 0.01977,-0.028551 0.0227,-0.076137 h 0.113473 v 0.982458 h 0.222554 z"
         style="font-size:1.49931002px;font-family:'Droid Sans';text-anchor:middle;fill:#000000;stroke:none;stroke-width:0"
         id="path4721" />
      <path
         d="M 21.070491,3.9826205 20.577066,4.90944 H 20.4204 L 20.945305,3.9474804 H 20.324497 V 3.8193655 h 0.745994 z"
         style="font-size:1.49931002px;font-family:'Droid Sans';text-anchor:middle;fill:#000000;stroke:none;stroke-width:0"
         id="path4723" />
      <path
         d="m 22.038308,4.555843 q 0,0.1661833 -0.109813,0.2716035 -0.109081,0.1046882 -0.267943,0.1046882 -0.08053,0 -0.146417,-0.024891 -0.06589,-0.024891 -0.116402,-0.073941 -0.06296,-0.060763 -0.09737,-0.1610587 -0.03368,-0.1002956 -0.03368,-0.241588 0,-0.1449529 0.03075,-0.2569619 0.03148,-0.112009 0.09956,-0.1991271 0.06442,-0.082726 0.166184,-0.1288469 0.101759,-0.046854 0.237195,-0.046854 0.04319,0 0.07248,0.00366 0.02928,0.00366 0.0593,0.013178 v 0.1398282 h -0.0073 q -0.0205,-0.010981 -0.06223,-0.020498 -0.041,-0.010249 -0.08419,-0.010249 -0.157399,0 -0.251106,0.098831 -0.09371,0.098099 -0.10908,0.2657469 0.0615,-0.037336 0.120794,-0.056371 0.06003,-0.019766 0.138364,-0.019766 0.06955,0 0.122258,0.013178 0.05344,0.012445 0.109081,0.051246 0.06442,0.044657 0.09663,0.1127411 0.03294,0.068084 0.03294,0.1654512 z m -0.148614,0.00586 q 0,-0.068084 -0.0205,-0.1127411 -0.01977,-0.044657 -0.06589,-0.077601 -0.03368,-0.023427 -0.07467,-0.030748 -0.041,-0.00732 -0.08565,-0.00732 -0.06223,0 -0.11567,0.014642 -0.05344,0.014642 -0.109812,0.045389 -0.0015,0.016106 -0.0022,0.03148 -7.32e-4,0.014642 -7.32e-4,0.037336 0,0.1156694 0.02343,0.1830213 0.02416,0.06662 0.06589,0.1054202 0.03368,0.032212 0.07248,0.047586 0.03953,0.014642 0.08565,0.014642 0.106152,0 0.166915,-0.064424 0.06076,-0.065156 0.06076,-0.1866816 z"
         style="font-size:1.49931002px;font-family:'Droid Sans';text-anchor:middle;fill:#000000;stroke:none;stroke-width:0"
         id="path4725" />
      <path
         d="m 23.089581,4.5741451 q 0,0.081262 -0.03075,0.1434887 -0.03075,0.062227 -0.08273,0.1024919 -0.0615,0.048318 -0.135435,0.068816 -0.07321,0.020498 -0.186682,0.020498 H 22.26745 V 3.8193655 h 0.322849 q 0.11933,0 0.178629,0.00879 0.0593,0.00879 0.113473,0.036604 0.06003,0.03148 0.08712,0.081261 0.02709,0.04905 0.02709,0.1178657 0,0.077601 -0.03953,0.1325074 -0.03953,0.054174 -0.10542,0.087118 v 0.00586 q 0.110545,0.022695 0.174236,0.097367 0.06369,0.073941 0.06369,0.1874137 z m -0.243784,-0.491229 q 0,-0.039533 -0.01318,-0.06662 -0.01318,-0.027087 -0.04246,-0.043925 -0.03441,-0.019766 -0.08346,-0.024159 -0.04905,-0.00512 -0.121526,-0.00512 h -0.172772 v 0.3147965 h 0.187414 q 0.06808,0 0.108348,-0.00659 0.04026,-0.00732 0.07467,-0.029283 0.03441,-0.021963 0.04832,-0.056371 0.01464,-0.03514 0.01464,-0.082726 z m 0.09297,0.4970857 q 0,-0.065888 -0.01977,-0.1046881 -0.01977,-0.0388 -0.07174,-0.065888 -0.03514,-0.018302 -0.08565,-0.023427 -0.04978,-0.00586 -0.121526,-0.00586 h -0.227678 v 0.4055751 h 0.191806 q 0.09517,0 0.155934,-0.00952 0.06076,-0.010249 0.09956,-0.036604 0.041,-0.028551 0.06003,-0.065155 0.01903,-0.036604 0.01903,-0.094439 z"
         style="font-size:1.49931002px;font-family:'Droid Sans';text-anchor:middle;fill:#000000;stroke:none;stroke-width:0"
         id="path4727" />
    </g>
    <g
       style="font-size:1.49931002px;font-family:'Droid Sans';text-anchor:middle;fill:#000000;stroke:none;stroke-width:0"
       id="text53" />
  </g>
</svg>
