<?xml version="1.0" encoding="UTF-8" standalone="no"?>
<!-- Generator: Adobe Illustrator 16.0.3, SVG Export Plug-In . SVG Version: 6.00 Build 0)  -->

<svg
   xmlns:dc="http://purl.org/dc/elements/1.1/"
   xmlns:cc="http://creativecommons.org/ns#"
   xmlns:rdf="http://www.w3.org/1999/02/22-rdf-syntax-ns#"
   xmlns:svg="http://www.w3.org/2000/svg"
   xmlns="http://www.w3.org/2000/svg"
   xmlns:sodipodi="http://sodipodi.sourceforge.net/DTD/sodipodi-0.dtd"
   xmlns:inkscape="http://www.inkscape.org/namespaces/inkscape"
   width="0.40065232in"
   xml:space="preserve"
   x="0px"
   version="1.1"
   y="0px"
   height="0.63659912in"
   viewBox="0 0 28.846967 45.835187"
   id="0"
   sodipodi:docname="AE-FT234X.svg"
   inkscape:version="0.92.1 r15371"><metadata
     id="metadata44"><rdf:RDF><cc:Work
         rdf:about=""><dc:format>image/svg+xml</dc:format><dc:type
           rdf:resource="http://purl.org/dc/dcmitype/StillImage" /><dc:title></dc:title></cc:Work></rdf:RDF></metadata><defs
     id="defs42" /><sodipodi:namedview
     pagecolor="#ffffff"
     bordercolor="#666666"
     borderopacity="1"
     objecttolerance="10"
     gridtolerance="10"
     guidetolerance="10"
     inkscape:pageopacity="0"
     inkscape:pageshadow="2"
     inkscape:window-width="2736"
     inkscape:window-height="1699"
     id="namedview40"
     showgrid="false"
     inkscape:zoom="8.4038163"
     inkscape:cx="-16.103773"
     inkscape:cy="58.391541"
     inkscape:window-x="-13"
     inkscape:window-y="-13"
     inkscape:window-maximized="1"
     inkscape:current-layer="0"
     fit-margin-top="0"
     fit-margin-left="0"
     fit-margin-right="0"
     fit-margin-bottom="0" /><desc
     id="0.0"><referenceFile
       id="0.0.0">AD8210_Breadboard.svg</referenceFile></desc><path
     id="0.1"
     d="m -1.6587343e-5,3.315457 v 19.133522 4.254115 19.132095 H 28.846983 V 3.315457 Z"
     inkscape:connector-curvature="0"
     style="fill:#0f7391;fill-opacity:1;stroke-width:1.19480348" /><g
     id="Connectors"
     transform="translate(0.02298341,16.050189)"><rect
       width="3.5"
       x="1.852"
       y="23.944"
       height="3.5"
       id="0.4.0"
       style="fill:#403619;stroke:#9a916c;stroke-width:1.5" /><circle
       cx="3.602"
       cy="25.691999"
       id="connector1pin"
       r="1.75"
       style="fill:#403619;stroke:#9a916c;stroke-width:1.5" /><circle
       cx="10.803"
       cy="25.694"
       id="connector2pin"
       r="1.75"
       style="fill:#403619;stroke:#9a916c;stroke-width:1.5" /><circle
       cx="18.000999"
       cy="25.694"
       id="connector3pin"
       r="1.75"
       style="fill:#403619;stroke:#9a916c;stroke-width:1.5" /><circle
       cx="25.197001"
       cy="25.691999"
       id="connector4pin"
       r="1.75"
       style="fill:#403619;stroke:#9a916c;stroke-width:1.5" /></g><g
     id="0.7"
     transform="translate(2.6250834,38.433489)"><text
       id="0.7.0"
       font-size="5"
       style="font-size:5px;font-family:'Droid Sans';fill:#d6d8d6">1</text>
</g><g
     style="clip-rule:evenodd;fill-rule:evenodd;image-rendering:optimizeQuality;shape-rendering:geometricPrecision;text-rendering:geometricPrecision"
     gorn="0.1.5"
     id="USB_x0020_MICRO"
     transform="matrix(0.07200008,0,0,0.07200008,-96.642642,41.610099)"><g
       id="g11636"
       transform="rotate(-90,1022.8295,-120.7469)"><g
         id="PINS"
         gorn="0.1.5.0"><polygon
           style="fill:#666666"
           points="1216,457 1233,457 1233,443 1216,443 "
           id="polygon8516" /><polygon
           style="fill:#999999"
           points="1216,457 1231,457 1231,455 1216,455 "
           id="polygon8518" /><polygon
           style="fill:#666666"
           points="1216,431 1233,431 1233,418 1216,418 "
           id="polygon8520" /><polygon
           style="fill:#999999"
           points="1216,431 1231,431 1231,430 1216,430 "
           id="polygon8522" /><polygon
           style="fill:#666666"
           points="1216,406 1233,406 1233,392 1216,392 "
           id="polygon8524" /><polygon
           style="fill:#999999"
           points="1216,406 1231,406 1231,405 1216,405 "
           id="polygon8526" /><polygon
           style="fill:#666666"
           points="1216,380 1233,380 1233,367 1216,367 "
           id="polygon8528" /><polygon
           style="fill:#999999"
           points="1216,380 1231,380 1231,379 1216,379 "
           id="polygon8530" /><polygon
           style="fill:#666666"
           points="1216,355 1233,355 1233,341 1216,341 "
           id="polygon8532" /><polygon
           style="fill:#999999"
           points="1216,355 1231,355 1231,354 1216,354 "
           id="polygon8534" /></g><polygon
         style="fill:#b3b3b3"
         points="1229,529 1229,269 1464,269 1464,529 "
         id="polygon8537" /><polygon
         style="fill:#cccccc"
         points="1229,529 1231,529 1231,269 1229,269 "
         id="polygon8539" /><polygon
         style="fill:#333333"
         points="1229,470 1445,470 1445,328 1229,328 "
         id="polygon8541" /><polygon
         style="fill:#b3b3b3"
         points="1480,541 1480,546 1459,532 1465,532 "
         id="polygon8543" /><polygon
         style="fill:#cccccc"
         points="1473,532 1480,541 1465,532 "
         id="polygon8545" /><polygon
         style="fill:#b3b3b3"
         points="1465,266 1459,266 1480,252 1480,257 "
         id="polygon8547" /><polygon
         style="fill:#cccccc"
         points="1473,266 1465,266 1480,257 "
         id="polygon8549" /><path
         style="fill:#cccccc"
         inkscape:connector-curvature="0"
         d="m 1237,532 -8,-3 v -35 c 0,0 2,32 4,33 3,1 4,-2 4,-2 z"
         id="path8551" /><path
         style="fill:#cccccc"
         inkscape:connector-curvature="0"
         d="m 1237,266 -8,3 v 35 c 0,0 2,-32 4,-33 3,-1 4,2 4,2 z"
         id="path8553" /><path
         style="fill:#e6e6e6"
         inkscape:connector-curvature="0"
         d="m 1229,313 h 23 v 22 h -23 v 6 h 8 v 116 h -8 v 7 h 23 v 22 h -23 v 46 h 235 V 266 h -235 z m 191,151 h 12 v 22 h -12 c -4,6 -11,10 -18,10 -9,0 -16,-3 -19,-10 v 0 h -62 v -22 h 62 c 3,-7 10,-11 19,-11 8,0 15,4 18,11 z m 0,-150 h 12 v 22 h -12 c -4,6 -11,9 -18,9 -9,0 -16,-2 -19,-9 v 0 h -62 v -22 h 62 c 3,-7 10,-12 19,-12 8,0 15,5 18,12 z"
         id="path8555" /><polygon
         style="fill:#f2f2f2"
         points="1237,532 1237,511 1464,526 1464,532 "
         id="polygon8557" /><polygon
         style="fill:#999999"
         points="1237,282 1237,266 1464,266 1313,274 "
         id="polygon8559" /><polygon
         style="fill:#cccccc"
         points="1321,486 1323,486 1323,464 1321,464 "
         id="polygon8561" /><polygon
         style="fill:#cccccc"
         points="1321,336 1323,336 1323,314 1321,314 "
         id="polygon8563" /><polygon
         style="fill:#b3b3b3"
         points="1452,519 1461,519 1461,279 1452,279 "
         id="polygon8565" /><polygon
         style="fill:#cccccc"
         points="1460,519 1464,519 1464,279 1460,279 "
         id="polygon8567" /></g></g><g
     style="clip-rule:evenodd;fill-rule:evenodd;image-rendering:optimizeQuality;shape-rendering:geometricPrecision;text-rendering:geometricPrecision"
     gorn="0.1.7"
     id="BLUE_x0020_LED"
     transform="matrix(0,-0.07200008,0.07200008,0,-20.707752,85.643796)"><polygon
       id="polygon8595"
       points="865,646 830,646 830,583 865,583 "
       style="fill:#cccccc" /><polygon
       id="polygon8597"
       points="862,634 834,634 834,595 862,595 "
       style="fill:#e5e5e5" /><polygon
       id="polygon8599"
       points="853,622 842,622 842,607 853,607 "
       style="fill:#1b5bb3" /></g><g
     id="g11704"
     transform="matrix(0.07200008,0,0,0.07200008,7.0082169,23.727482)"><g
       id="g11702"
       transform="rotate(90,98.735424,98.735424)"><g
         id="g11700"><g
           id="g11698"><g
             id="g11696"
             transform="matrix(0.5,0,0,0.5,47.2441,47.2441)"><g
               id="g11694"><g
                 id="g11692"><g
                   id="g11690"><rect
                     id="rect11644"
                     height="13.7795"
                     connectorname="1"
                     y="49.212502"
                     x="0"
                     width="31.496"
                     style="fill:#8c8c8c;stroke:none;stroke-width:0;stroke-linecap:round" /><rect
                     id="rect11646"
                     height="13.7795"
                     connectorname="2"
                     y="74.803001"
                     x="0"
                     width="31.496"
                     style="fill:#8c8c8c;stroke:none;stroke-width:0;stroke-linecap:round" /><rect
                     id="rect11648"
                     height="13.7795"
                     connectorname="3"
                     y="100.393"
                     x="0"
                     width="31.496"
                     style="fill:#8c8c8c;stroke:none;stroke-width:0;stroke-linecap:round" /><rect
                     id="rect11650"
                     height="13.7795"
                     connectorname="4"
                     y="125.984"
                     x="0"
                     width="31.496"
                     style="fill:#8c8c8c;stroke:none;stroke-width:0;stroke-linecap:round" /><rect
                     id="rect11652"
                     height="31.496"
                     connectorname="5"
                     y="157.48"
                     x="49.212502"
                     width="13.7795"
                     style="fill:#8c8c8c;stroke:none;stroke-width:0;stroke-linecap:round" /><rect
                     id="rect11654"
                     height="31.496"
                     connectorname="6"
                     y="157.48"
                     x="74.803001"
                     width="13.7795"
                     style="fill:#8c8c8c;stroke:none;stroke-width:0;stroke-linecap:round" /><rect
                     id="rect11656"
                     height="31.496"
                     connectorname="7"
                     y="157.48"
                     x="100.393"
                     width="13.7795"
                     style="fill:#8c8c8c;stroke:none;stroke-width:0;stroke-linecap:round" /><rect
                     id="rect11658"
                     height="31.496"
                     connectorname="8"
                     y="157.48"
                     x="125.984"
                     width="13.7795"
                     style="fill:#8c8c8c;stroke:none;stroke-width:0;stroke-linecap:round" /><rect
                     id="rect11660"
                     height="13.7795"
                     connectorname="9"
                     y="125.984"
                     x="157.48"
                     width="31.496"
                     style="fill:#8c8c8c;stroke:none;stroke-width:0;stroke-linecap:round" /><rect
                     id="rect11662"
                     height="13.7795"
                     connectorname="10"
                     y="100.393"
                     x="157.48"
                     width="31.496"
                     style="fill:#8c8c8c;stroke:none;stroke-width:0;stroke-linecap:round" /><rect
                     id="rect11664"
                     height="13.7795"
                     connectorname="11"
                     y="74.803001"
                     x="157.48"
                     width="31.496"
                     style="fill:#8c8c8c;stroke:none;stroke-width:0;stroke-linecap:round" /><rect
                     id="rect11666"
                     height="13.7795"
                     connectorname="12"
                     y="49.212502"
                     x="157.48"
                     width="31.496"
                     style="fill:#8c8c8c;stroke:none;stroke-width:0;stroke-linecap:round" /><rect
                     id="rect11668"
                     height="31.496"
                     connectorname="13"
                     y="0"
                     x="125.984"
                     width="13.7795"
                     style="fill:#8c8c8c;stroke:none;stroke-width:0;stroke-linecap:round" /><rect
                     id="rect11670"
                     height="31.496"
                     connectorname="14"
                     y="0"
                     x="100.393"
                     width="13.7795"
                     style="fill:#8c8c8c;stroke:none;stroke-width:0;stroke-linecap:round" /><rect
                     id="rect11672"
                     height="31.496"
                     connectorname="15"
                     y="0"
                     x="74.803001"
                     width="13.7795"
                     style="fill:#8c8c8c;stroke:none;stroke-width:0;stroke-linecap:round" /><rect
                     id="rect11674"
                     height="31.496"
                     connectorname="16"
                     y="0"
                     x="49.212502"
                     width="13.7795"
                     style="fill:#8c8c8c;stroke:none;stroke-width:0;stroke-linecap:round" /><rect
                     id="rect11676"
                     height="98.425003"
                     connectorname="EXP"
                     y="45.275501"
                     x="45.275501"
                     width="98.425003"
                     style="fill:#8c8c8c;stroke:none;stroke-width:0;stroke-linecap:round" /><rect
                     id="rect11678"
                     height="167"
                     y="10.9882"
                     x="9.4881897"
                     width="170"
                     style="fill:#303030;stroke:none;stroke-width:0" /><polygon
                     id="polygon11680"
                     points="179.488,10.9882 169.488,20.9882 19.4882,20.9882 9.48819,10.9882 "
                     style="fill:#1f1f1f" /><polygon
                     id="polygon11682"
                     points="179.488,177.988 169.488,167.988 19.4882,167.988 9.48819,177.988 "
                     style="fill:#1f1f1f" /><polygon
                     id="polygon11684"
                     points="9.48819,177.988 19.4882,167.988 19.4882,20.9882 9.48819,10.9882 "
                     style="fill:#000000" /><polygon
                     id="polygon11686"
                     points="179.488,177.988 169.488,167.988 169.488,20.9882 179.488,10.9882 "
                     style="fill:#3d3d3d" /><circle
                     id="circle11688"
                     r="10"
                     cy="147.98801"
                     cx="39.488201"
                     style="fill:#1f1f1f;stroke:none;stroke-width:0" /></g></g></g></g></g></g></g></g></svg>